<?xml version="1.0" encoding="utf-8"?>
<!-- Generator: Adobe Illustrator 19.2.1, SVG Export Plug-In . SVG Version: 6.00 Build 0)  -->
<svg version="1.1" id="Layer_1" xmlns="http://www.w3.org/2000/svg" xmlns:xlink="http://www.w3.org/1999/xlink" x="0px" y="0px"
	 viewBox="0 0 80 80" style="enable-background:new 0 0 80 80;" xml:space="preserve">
<style type="text/css">
	.st0{fill:none;stroke:#000000;stroke-width:1.595;stroke-linecap:round;}
	.st1{fill:none;stroke:#000000;stroke-width:1.5983;stroke-linecap:round;}
	.st2{fill:none;stroke:#000000;stroke-width:1.7848;stroke-linecap:round;}
	.st3{fill:none;stroke:#000000;stroke-width:1.6703;stroke-linecap:round;}
	.st4{fill:none;stroke:#000000;stroke-width:1.749;stroke-linecap:round;}
	.st5{fill:none;stroke:#000000;stroke-width:1.5149;stroke-linecap:round;}
	.st6{fill:none;stroke:#000000;stroke-width:1.7552;stroke-linecap:round;}
	.st7{fill:none;stroke:#000000;stroke-width:1.7578;stroke-linecap:round;}
	.st8{fill:none;stroke:#000000;stroke-width:1.6945;stroke-linecap:round;}
	.st9{fill:none;stroke:#000000;stroke-width:1.681;stroke-linecap:round;}
	.st10{fill:none;stroke:#000000;stroke-width:1.7768;stroke-linecap:round;}
	.st11{fill:none;stroke:#000000;stroke-width:1.6701;stroke-linecap:round;}
	.st12{fill:none;stroke:#000000;stroke-width:1.478;stroke-linecap:round;}
	.st13{fill:none;stroke:#000000;stroke-width:1.2818;stroke-linecap:round;}
	.st14{fill:none;stroke:#000000;stroke-width:1.4806;stroke-linecap:round;}
	.st15{fill:none;stroke:#000000;stroke-width:1.4443;stroke-linecap:round;}
	.st16{fill:none;stroke:#000000;stroke-width:1.4337;stroke-linecap:round;}
	.st17{fill:none;stroke:#000000;stroke-width:1.6519;stroke-linecap:round;}
	.st18{fill:none;stroke:#000000;stroke-width:1.6754;stroke-linecap:round;}
	.st19{fill:none;stroke:#000000;stroke-width:1.6498;stroke-linecap:round;}
	.st20{fill:none;stroke:#000000;stroke-width:1.6901;stroke-linecap:round;}
	.st21{fill:none;stroke:#000000;stroke-width:1.6112;stroke-linecap:round;}
	.st22{fill:none;stroke:#000000;stroke-width:1.5341;stroke-linecap:round;}
	.st23{fill:none;stroke:#000000;stroke-width:1.6484;stroke-linecap:round;}
	.st24{fill:none;stroke:#000000;stroke-width:1.7814;stroke-linecap:round;}
	.st25{fill:none;stroke:#000000;stroke-width:1.3425;stroke-linecap:round;}
	.st26{fill:none;stroke:#000000;stroke-width:1.3894;stroke-linecap:round;}
	.st27{fill:none;stroke:#000000;stroke-width:1.4344;stroke-linecap:round;}
</style>
<g id="DmJ9KM_1_">
	<g>
		<g>
			<g>
				<path d="M67.8,14.9c-0.5,0-0.9-0.4-1-0.9c-0.5-4-4.8-6-8.3-7.5l-0.7-0.3c-0.5-0.2-0.7-0.8-0.5-1.4c0.2-0.5,0.8-0.7,1.4-0.5
					l0.7,0.3c3.7,1.7,8.9,4,9.5,9.1c0.1,0.6-0.3,1.1-0.9,1.1C67.9,14.9,67.8,14.9,67.8,14.9L67.8,14.9z"/>
			</g>
			<g>
				<path d="M58.4,26.1c-0.5,0-1-0.4-1-0.9c-0.3-3.2-4.7-6.3-8.4-8.1c-0.5-0.2-0.7-0.9-0.5-1.4c0.2-0.5,0.9-0.7,1.4-0.5
					c2.1,1,9.1,4.7,9.5,9.8C59.5,25.5,59.1,26,58.4,26.1C58.5,26.1,58.4,26.1,58.4,26.1L58.4,26.1z"/>
			</g>
			<g>
				<path d="M29.4,25.4c-0.3,0-0.6-0.1-0.8-0.4c-0.3-0.5-0.2-1.1,0.2-1.4c4.2-3.1,10.1-1.5,13.6-0.6c0.5,0.1,0.9,0.7,0.7,1.2
					c-0.1,0.5-0.7,0.9-1.2,0.7c-4.3-1.1-8.7-2-11.8,0.3C29.8,25.3,29.6,25.4,29.4,25.4L29.4,25.4z"/>
			</g>
			<g>
				<path d="M21.7,60.4c-0.1,0-0.2,0-0.2,0c-0.6-0.1-0.9-0.7-0.8-1.3c1.2-5.3,2.6-9.9,4.4-14.1l0.1-0.2c0.4-0.6,10.5-15.9,16.2-21.6
					c2.3-2.3,6.8-8.1,6.9-8.2c1.1-1.6,7-8.7,9.2-10.6C57.9,4,58.6,4.1,59,4.5C59.3,5,59.3,5.6,58.9,6c-1.9,1.7-7.7,8.6-8.9,10.3
					c-0.2,0.3-4.6,6-7.1,8.4c-5.3,5.3-15,20-15.8,21.2c-1.7,4.1-3.1,8.6-4.3,13.7C22.6,60.1,22.2,60.4,21.7,60.4L21.7,60.4z"/>
			</g>
			<g>
				<path d="M34,66c-2.4,0-4.7-0.3-6.8-0.9L26.7,65c-2.1-0.6-6.4-1.7-6-5.7c0.1-0.5,0.5-0.9,1.1-0.9c0.5,0.1,0.9,0.6,0.9,1.1
					c-0.2,2.1,2.1,3,4.5,3.6l0.5,0.1c8.8,2.4,20.8-0.3,25.8-10.3c2.3-4.6,3-14.5-1.2-19.4c-0.4-0.4-0.3-1,0.1-1.4
					c0.4-0.4,1-0.3,1.4,0.1c5,5.8,4,16.4,1.5,21.6C51,62.3,42.2,66,34,66L34,66z"/>
			</g>
			<g>
				<path d="M12.1,79.7L12,78.8c-1.4-10.9-1.6-22.2-1.8-33C10,35,9.8,23.9,8.5,13l0-0.4l0.2-0.3c1.1-1.4,3-1.4,4.9-1.3
					c0.3,0,0.6,0,0.9,0c4.4,0.1,9.9-0.1,15.2-0.3c1.6-0.1,3.2-0.1,4.7-0.2c3-0.1,7.1-0.3,11-0.5c2.6-0.1,5.2-0.3,7.5-0.4
					c0.5,0,1,0.4,1,0.9c0,0.5-0.4,1-0.9,1c-2.2,0.1-4.8,0.2-7.5,0.4c-4,0.2-8.1,0.4-11.1,0.5c-1.5,0.1-3.1,0.1-4.7,0.2
					c-5.4,0.2-10.9,0.4-15.3,0.3c-0.3,0-0.6,0-0.9,0c-1.2,0-2.5-0.1-3.1,0.3c1.3,10.8,1.5,21.8,1.7,32.5c0.2,10.5,0.4,21.4,1.6,31.9
					c4-0.2,8-0.3,12-0.4c13.1-0.4,26.6-0.8,39.6-2.8c-0.1-5-0.1-11.3-0.2-17.8c-0.2-16.8-0.4-35.8-0.6-39.6c0-0.5,0.4-1,0.9-1
					c0.5,0,1,0.4,1,0.9c0.2,3.8,0.4,22.8,0.6,39.6c0.1,6.9,0.2,13.5,0.2,18.6l0,0.8l-0.8,0.1c-13.4,2.2-27.2,2.6-40.6,3
					c-4.2,0.1-8.6,0.2-12.8,0.4L12.1,79.7L12.1,79.7z"/>
			</g>
			<g>
				<path d="M35.8,54.2c-0.2,0-0.4-0.1-0.6-0.2c-0.4-0.3-0.5-0.9-0.1-1.3c1.7-2.1,3.6-4.4,5.6-6.7c4-4.8,8.1-9.7,11-14
					c0.2-0.2,10.5-12.2,11.7-13.8l3.7-4.5c1-1.3,1.8-2.9,2.3-4.6c0.9-3,0.1-5.3-2-6.2c-2.8-1.2-5.7-0.4-8.4,3
					c-0.3,0.4-0.9,0.6-1.3,0.3c-0.4-0.3-0.6-0.9-0.3-1.3c3.1-4.3,7.3-5.3,10.8-3.7c2.3,1,4.4,3.8,3,8.5c-0.7,2.3-2.2,4.8-2.6,5.3
					l-3.7,4.5c-1.3,1.6-11.3,13.3-11.7,13.7c-2.8,4.3-7,9.2-11,14c-2,2.4-3.9,4.6-5.5,6.7C36.4,54,36.1,54.2,35.8,54.2L35.8,54.2z"
					/>
			</g>
			<g>
				<path d="M21.7,60.4c-0.4,0-0.7-0.2-0.9-0.5c-0.3-0.5-0.1-1.1,0.4-1.4c1.5-0.9,3.6-1.6,5.9-2.5c2.9-1,6.2-2.2,7.9-3.6
					c0.5-0.4,0.7-0.8,0.8-1.3c0.1-0.6,0.6-0.9,1.2-0.8c0.6,0.1,0.9,0.6,0.8,1.2c-0.2,1-0.7,1.9-1.6,2.6c-2,1.5-5.3,2.7-8.5,3.9
					c-2.2,0.8-4.3,1.6-5.6,2.3C22.1,60.3,21.9,60.4,21.7,60.4L21.7,60.4z"/>
			</g>
			<g>
				<path d="M36.9,52.4c-0.6,0-1.1-0.5-1.1-1.1c0-1-0.3-1.8-1-2.2c-0.8-0.6-2.3-0.6-3.7,0l-1.4,0.6l-0.1-1.5c0-0.2-0.3-0.7-0.9-1.1
					c-0.7-0.5-1.7-0.8-2.2-0.6c-0.6,0.2-1.2-0.2-1.4-0.7c-0.2-0.6,0.2-1.2,0.7-1.4c1.5-0.4,3.1,0.2,4.1,0.9c0.6,0.4,1.1,0.9,1.4,1.5
					c1.7-0.4,3.4-0.3,4.6,0.6c0.9,0.6,1.9,1.7,2,4C38.1,51.9,37.6,52.4,36.9,52.4C37,52.4,36.9,52.4,36.9,52.4L36.9,52.4z"/>
			</g>
			<g>
				<path d="M54.1,15.3c-0.2,0-0.4-0.1-0.6-0.2c-0.3-0.3-0.3-0.8,0-1.2c0.7-0.8,1.4-1.5,2.2-2.2c0.7-0.7,1.4-1.4,2.1-2.2
					c0.3-0.3,0.8-0.3,1.2,0c0.3,0.3,0.3,0.8,0,1.2c-0.7,0.7-1.4,1.4-2.1,2.2c-0.7,0.7-1.4,1.5-2.1,2.2
					C54.5,15.2,54.3,15.3,54.1,15.3L54.1,15.3z"/>
			</g>
			<g>
				<path d="M56.9,17.4c-0.2,0-0.4-0.1-0.5-0.2C56,16.9,56,16.4,56.3,16c1.1-1.3,2.3-2.6,3.5-3.7l0.9-0.9c0.3-0.3,0.9-0.3,1.2,0
					c0.3,0.3,0.3,0.9,0,1.2l-0.9,0.9c-1.1,1.1-2.3,2.3-3.3,3.6C57.4,17.3,57.2,17.4,56.9,17.4L56.9,17.4z"/>
			</g>
			<g>
				<path d="M59.6,19.3c-0.2,0-0.4-0.1-0.6-0.2c-0.4-0.3-0.4-0.9,0-1.3l0.3-0.3c1.1-1.2,2.3-2.4,3.4-3.6c0.3-0.3,0.9-0.3,1.3,0
					c0.3,0.3,0.3,0.9,0,1.3c-1.2,1.2-2.3,2.4-3.4,3.5l-0.3,0.3C60.1,19.3,59.8,19.3,59.6,19.3L59.6,19.3z"/>
			</g>
		</g>
	</g>
</g>
<g id="_x38_asZ20_2_">
	<g>
		<g>
			<path class="st0" d="M387,382.4c-3.6-1.3-5.5-5.3-8.8-7.2"/>
			<path class="st1" d="M333,352.3c-1.9,0.1-2.8,2.3-4.7,2.5c-0.7-4.2,0-9.4,0-13.4c2.1-0.5,2.8,1.9,4.3,2.5"/>
			<path class="st2" d="M387,382.4c0.1,0.3,0.3,0.8,0.5,1.2c0.9,0.5,2.3,0.2,3.1-0.4c1-14.7,2.7-29.4,3.6-44
				c-1.5-0.3-3.1-0.7-4.6-0.3c0,0-6.7,7.5-9.9,9.4"/>
			<path class="st3" d="M387,382.4c0.3-13.8,2.7-29.3,2.6-43.1"/>
			<path class="st4" d="M333,352c0.1-2.5,0.4-8.6,0.4-8.6c0.5-7.1,14.9-3.7,21-3.6c3.1,0.1,9.6,0.6,15,0.3c4-0.2,7.8-0.6,8.8,3.8
				c0.4,1.9,0.7,5.1,0.7,5.1c-0.6,8.3-1.2,16.7-1.4,25.1l-0.1,1.3c-0.9,5.4,2.1,9.3-5.2,10.5c-3.7,0.6-11.3-0.5-14.4-0.1
				c-3.3,0.4-8.9-0.2-14-0.5c-2.3-0.2-6.6,0.4-8.4-0.6c-2.4-1.3-2.7-5-2.8-7.8C332.3,370.5,333,352,333,352z"/>
			<path class="st5" d="M370.3,344.9c-0.7,0.4-1,0.7-1.2,1.2C367.7,351.5,377.1,346.2,370.3,344.9"/>
		</g>
	</g>
</g>
<g id="FKap4d_2_">
	<g>
		<g>
			<path class="st6" d="M340.7,250.1c0.3-0.8,0.1-1.8,0.6-2.6c2.5-0.6,5.2-0.6,7.8,0c0.4,0.4,0.3,1,0.5,1.5"/>
			<path class="st7" d="M361.9,242.9c0.1-1.3,0.5-2.3,1.3-3c1.3-0.8,10.4-0.6,12,0.3c0.7,0.8,1.1,1.7,1.2,2.9"/>
			<path class="st8" d="M385.1,247.9c3.3-3.4,6.4-0.2,10.1,0.7l1.1,2.4"/>
			<path class="st9" d="M362.9,242.9c4,0.8,8.4,1.1,12.4,0.2"/>
			<path class="st10" d="M375.3,243.1c3.2,1,5.6,2.4,8.8,4.3s11.6,3.6,12.3,3.7s2.2-0.2,3.3-0.1c1.3,1.7,1,5.3,1,7.7
				c0.4,11.2,0.8,24.2,0.9,35.1c-20.1,2.3-40.6,0-60.9,0.2c-0.7-7.5-1.5-16.4-1.9-24.8c-0.3-6.8-1-13.9,0.7-18.9
				c0.3-0.2,0.7-0.1,1.1-0.2"/>
			<path class="st11" d="M340.7,250.1c2.8,0.7,5.9,0.1,8.9-0.5c5.5-2,8.7-6.1,13.3-6.8"/>
			<path class="st12" d="M350.4,273.7c0.7,6,5,10.7,9.4,13.6c13.4,8.9,30.1-3,30.5-17.9c0.2-9.2-9.4-18.4-18.1-19.6
				C359,247.8,348.5,259.7,350.4,273.7"/>
			<path class="st13" d="M353.7,275.3c3.2,11.7,19.6,16.1,27.9,7.6c6.3-6.4,7-18.4,1.2-24.3c-6.6-6.8-17.3-7.3-23.9-2.3
				C353.6,260.2,351.8,267.3,353.7,275.3"/>
			<path class="st14" d="M364.4,268.1c2.9-1.9,5.4-4.3,8.2-6.4"/>
			<path class="st15" d="M361.7,276.7c5.7-4.4,10.5-9.7,16.5-13.9"/>
			<path class="st14" d="M370,274.9c2.8-2.1,5.3-4.5,8.2-6.4"/>
			<path class="st16" d="M385.8,285.1c1.1,0,1.3-0.1,1.9,0.4C391.6,288.9,381.7,290,385.8,285.1"/>
		</g>
	</g>
</g>
<g id="DmJ9KM_2_">
	<g>
		<g>
			<path class="st17" d="M560.3,302.7c3.7,1.7,7.7,4,8.7,8.2c0,0,4.2-3.8,5-5.8C578.5,294.6,564,292.7,560.3,302.7"/>
			<path class="st18" d="M552.1,313c3,1.4,6.8,3.3,7.1,7.1"/>
			<path class="st19" d="M545.1,320.4c-3.7-1-8.6-2.1-12,0.4"/>
			<path class="st20" d="M525.9,353.9c1.1-4.9,2.4-9.2,4.1-13.2c0,0,9.8-14.9,15.2-20.3c2.3-2.3,6.6-7.8,6.6-7.8
				c1.1-1.6,6.6-8.2,8.6-9.9"/>
			<path class="st21" d="M525.9,353.9c-0.4,3.2,3.6,4,5.4,4.5c8.9,2.5,20.6-0.4,25.4-10.2c2.1-4.3,3.2-14.1-1.3-19.3"/>
			<path class="st22" d="M539.2,348c4.8-6,11.6-13.6,15.7-19.6c0,0,10.1-12.1,11.4-13.3l0.9-0.9c0,0,0.6,36.6,0.8,54.7
				c-16.6,2.7-33.7,2.5-50.4,3.2c-2.6-20.6-0.7-41.6-3.3-62.2c0.9-1.1,2.9-0.9,4.8-0.8c5.4,0.1,12.8-0.3,18.9-0.5
				c4.7-0.2,12.2-0.6,17.5-0.9"/>
			<path class="st23" d="M525.9,353.9c3-1.8,10.1-3.4,13.2-5.8c0.7-0.5,1-1.1,1.2-1.8"/>
			<path class="st24" d="M540.2,346.3c0-3.4-3.1-4.1-5.8-3c-0.1-1.6-2.7-3.1-4.3-2.6"/>
			<path class="st25" d="M556.4,311.4c1.3-1.4,2.7-2.8,4-4.1"/>
			<path class="st26" d="M559.1,313.4c1.2-1.6,2.7-2.9,4.1-4.4"/>
			<path class="st27" d="M561.7,315.2c1.2-1.2,2.3-2.5,3.5-3.7"/>
		</g>
	</g>
</g>
</svg>
