<?xml version="1.0" encoding="utf-8"?>
<!-- Generator: Adobe Illustrator 19.2.1, SVG Export Plug-In . SVG Version: 6.00 Build 0)  -->
<svg version="1.1" id="Layer_1" xmlns="http://www.w3.org/2000/svg" xmlns:xlink="http://www.w3.org/1999/xlink" x="0px" y="0px"
	 viewBox="0 0 80 80" style="enable-background:new 0 0 80 80;" xml:space="preserve">
<style type="text/css">
	.st0{fill:none;stroke:#000000;stroke-width:1.595;stroke-linecap:round;}
	.st1{fill:none;stroke:#000000;stroke-width:1.5983;stroke-linecap:round;}
	.st2{fill:none;stroke:#000000;stroke-width:1.7848;stroke-linecap:round;}
	.st3{fill:none;stroke:#000000;stroke-width:1.6703;stroke-linecap:round;}
	.st4{fill:none;stroke:#000000;stroke-width:1.749;stroke-linecap:round;}
	.st5{fill:none;stroke:#000000;stroke-width:1.5149;stroke-linecap:round;}
	.st6{fill:none;stroke:#000000;stroke-width:1.7552;stroke-linecap:round;}
	.st7{fill:none;stroke:#000000;stroke-width:1.7578;stroke-linecap:round;}
	.st8{fill:none;stroke:#000000;stroke-width:1.6945;stroke-linecap:round;}
	.st9{fill:none;stroke:#000000;stroke-width:1.681;stroke-linecap:round;}
	.st10{fill:none;stroke:#000000;stroke-width:1.7768;stroke-linecap:round;}
	.st11{fill:none;stroke:#000000;stroke-width:1.6701;stroke-linecap:round;}
	.st12{fill:none;stroke:#000000;stroke-width:1.478;stroke-linecap:round;}
	.st13{fill:none;stroke:#000000;stroke-width:1.2818;stroke-linecap:round;}
	.st14{fill:none;stroke:#000000;stroke-width:1.4806;stroke-linecap:round;}
	.st15{fill:none;stroke:#000000;stroke-width:1.4443;stroke-linecap:round;}
	.st16{fill:none;stroke:#000000;stroke-width:1.4337;stroke-linecap:round;}
	.st17{fill:none;stroke:#000000;stroke-width:1.6519;stroke-linecap:round;}
	.st18{fill:none;stroke:#000000;stroke-width:1.6754;stroke-linecap:round;}
	.st19{fill:none;stroke:#000000;stroke-width:1.6498;stroke-linecap:round;}
	.st20{fill:none;stroke:#000000;stroke-width:1.6901;stroke-linecap:round;}
	.st21{fill:none;stroke:#000000;stroke-width:1.6112;stroke-linecap:round;}
	.st22{fill:none;stroke:#000000;stroke-width:1.5341;stroke-linecap:round;}
	.st23{fill:none;stroke:#000000;stroke-width:1.6484;stroke-linecap:round;}
	.st24{fill:none;stroke:#000000;stroke-width:1.7814;stroke-linecap:round;}
	.st25{fill:none;stroke:#000000;stroke-width:1.3425;stroke-linecap:round;}
	.st26{fill:none;stroke:#000000;stroke-width:1.3894;stroke-linecap:round;}
	.st27{fill:none;stroke:#000000;stroke-width:1.4344;stroke-linecap:round;}
</style>
<g id="_x38_asZ20_1_">
	<g>
		<g>
			<g>
				<path d="M67.3,62c-0.1,0-0.2,0-0.3-0.1c-2.3-0.9-4-2.7-5.7-4.4c-1.2-1.3-2.4-2.5-3.8-3.4c-0.5-0.3-0.6-0.9-0.3-1.4
					c0.3-0.5,0.9-0.6,1.4-0.3c1.6,1,2.9,2.4,4.2,3.7c1.5,1.6,3,3.2,4.9,3.9c0.5,0.2,0.8,0.8,0.6,1.3C68.1,61.8,67.7,62,67.3,62
					L67.3,62z"/>
			</g>
			<g>
				<path d="M4.4,32.9l-0.2-0.9c-0.5-3.2-0.3-7-0.1-10.3c0.1-1.4,0.2-2.8,0.2-4l0-0.8L5,16.7c1.9-0.5,3.1,0.8,4,1.7
					c0.4,0.5,0.8,0.9,1.2,1.1c0.5,0.2,0.7,0.8,0.5,1.3c-0.2,0.5-0.8,0.7-1.3,0.5c-0.8-0.3-1.3-1-1.9-1.5c-0.6-0.6-0.9-1-1.3-1.1
					c0,1-0.1,2-0.2,3.1c-0.2,2.9-0.3,6,0,8.7c0.3-0.2,0.6-0.5,1-0.7c0.8-0.7,1.8-1.5,3.1-1.5c0.5,0,1,0.4,1,0.9c0,0.5-0.4,1-0.9,1
					c-0.7,0-1.3,0.5-1.9,1.1c-0.8,0.7-1.7,1.4-3,1.5L4.4,32.9L4.4,32.9z"/>
			</g>
			<g>
				<path d="M69,63.7c-0.6,0-1.2-0.1-1.7-0.4L67,63.1l-0.2-0.3c-0.2-0.3-0.3-0.7-0.5-1l-0.1-0.3c-0.2-0.6,0-1.2,0.6-1.4
					c0.6-0.2,1.2,0,1.4,0.6l0.1,0.4c0.1,0.1,0.1,0.3,0.2,0.4c0.4,0.1,1,0,1.4-0.2c0.5-7,1.1-14.1,1.7-20.9c0.7-7.9,1.4-16.1,2-24.1
					c-1.1-0.2-2.2-0.3-3.1-0.2c-1.3,1.4-7.3,8-10.5,9.9c-0.5,0.3-1.2,0.1-1.5-0.4c-0.3-0.5-0.1-1.2,0.4-1.5c3.2-2,10.2-9.7,10.3-9.8
					l0.2-0.2l0.3-0.1c1.7-0.5,3.6-0.1,5.4,0.3l0.9,0.2l-0.1,0.9c-0.5,8.3-1.3,16.9-2,25.1c-0.6,7-1.3,14.3-1.8,21.5l0,0.5l-0.4,0.3
					C71,63.3,70,63.7,69,63.7L69,63.7z"/>
			</g>
			<g>
				<path d="M67.3,62.1C67.3,62.1,67.3,62.1,67.3,62.1c-0.6,0-1-0.5-1-1.1c0.2-6.5,0.8-13.6,1.4-20.4c0.7-8.4,1.5-17.2,1.4-25.2
					c0-0.6,0.5-1,1-1c0.6,0,1,0.5,1,1c0.1,8.2-0.7,16.9-1.4,25.4c-0.6,6.8-1.2,13.8-1.3,20.2C68.3,61.6,67.9,62.1,67.3,62.1
					L67.3,62.1z"/>
			</g>
			<g>
				<path d="M48.5,66.3c-1.7,0-3.6-0.1-5.5-0.2c-2.7-0.1-5.3-0.3-6.6-0.1c-2.7,0.3-7.4,0-11.8-0.3c-1.1-0.1-2.1-0.2-3.2-0.2
					c-0.7,0-1.7,0-2.7,0c-0.6,0-1.3,0-1.9,0c-2.3,0-3.8-0.2-4.7-0.7c-3.3-1.7-3.5-6.8-3.6-9.2C8.3,48.5,9,29.7,9,28.9
					c0.1-2.6,0.5-9.1,0.5-9.1C9.9,14,17.2,14,19.6,14c2.7,0,5.7,0.3,8.3,0.6c1.9,0.2,3.6,0.4,4.9,0.4c1,0,2.2,0.1,3.7,0.2
					c3.5,0.2,8.1,0.4,12.2,0.2l0.6,0c0.8,0,1.7-0.1,2.5-0.1c3,0,6.3,0.6,7.3,5c0.5,2.1,0.7,5.4,0.7,5.6l0,0.1l0,0.1
					c-0.6,8.4-1.2,17.5-1.5,26.5L58.1,54c-0.3,1.5-0.2,2.9-0.1,4.2c0.1,3.5,0.3,6.8-6.2,7.8C50.9,66.2,49.8,66.3,48.5,66.3
					L48.5,66.3z M38.3,63.7c1.4,0,3.1,0.1,4.8,0.2c1.8,0.1,3.7,0.2,5.3,0.2c1.2,0,2.2-0.1,2.9-0.2c4.6-0.7,4.5-2.3,4.4-5.6
					c-0.1-1.4-0.1-2.9,0.2-4.6l0.2-1.3c0.2-9,0.8-18,1.5-26.4c0-0.5-0.3-3.4-0.7-5.2c-0.5-2.5-1.8-3.3-5.2-3.3c-0.8,0-1.5,0-2.4,0.1
					l-0.6,0c-4.1,0.2-8.8,0-12.4-0.2c-1.4-0.1-2.7-0.1-3.6-0.2c-1.4,0-3.2-0.2-5.1-0.4c-2.6-0.3-5.4-0.6-8.1-0.6
					c-6.9,0-7.8,2.1-7.9,3.7c0,0-0.4,6.4-0.5,9c0,0.2-0.7,19.6-0.5,26.5c0.1,3,0.5,6.3,2.4,7.3c0.9,0.5,3,0.5,3.7,0.5
					c0.6,0,1.2,0,1.8,0c1.1,0,2.1,0,2.9,0c1.1,0.1,2.1,0.2,3.2,0.2c4.4,0.3,8.9,0.6,11.4,0.3C36.7,63.7,37.4,63.7,38.3,63.7
					L38.3,63.7z"/>
			</g>
			<g>
				<path d="M49.6,26.1L49.6,26.1c-0.8,0-1.4-0.3-1.8-0.8c-0.5-0.7-0.6-1.6-0.3-2.9c0.3-0.9,0.9-1.4,1.6-1.8l0.3-0.2l0.4,0.1
					c3.1,0.6,3.5,2.1,3.4,2.9C53.1,24.9,51.2,26.1,49.6,26.1L49.6,26.1z M49.8,22.4c-0.4,0.3-0.5,0.4-0.5,0.5
					c-0.2,0.8-0.1,1.1,0,1.2c0.1,0.1,0.2,0.1,0.3,0.1c0.8,0,1.7-0.7,1.8-1.1C51.4,23.1,51.1,22.7,49.8,22.4L49.8,22.4z"/>
			</g>
		</g>
	</g>
</g>
<g id="_x38_asZ20_2_">
	<g>
		<g>
			<path class="st0" d="M387,382.4c-3.6-1.3-5.5-5.3-8.8-7.2"/>
			<path class="st1" d="M333,352.3c-1.9,0.1-2.8,2.3-4.7,2.5c-0.7-4.2,0-9.4,0-13.4c2.1-0.5,2.8,1.9,4.3,2.5"/>
			<path class="st2" d="M387,382.4c0.1,0.3,0.3,0.8,0.5,1.2c0.9,0.5,2.3,0.2,3.1-0.4c1-14.7,2.7-29.4,3.6-44
				c-1.5-0.3-3.1-0.7-4.6-0.3c0,0-6.7,7.5-9.9,9.4"/>
			<path class="st3" d="M387,382.4c0.3-13.8,2.7-29.3,2.6-43.1"/>
			<path class="st4" d="M333,352c0.1-2.5,0.4-8.6,0.4-8.6c0.5-7.1,14.9-3.7,21-3.6c3.1,0.1,9.6,0.6,15,0.3c4-0.2,7.8-0.6,8.8,3.8
				c0.4,1.9,0.7,5.1,0.7,5.1c-0.6,8.3-1.2,16.7-1.4,25.1l-0.1,1.3c-0.9,5.4,2.1,9.3-5.2,10.5c-3.7,0.6-11.3-0.5-14.4-0.1
				c-3.3,0.4-8.9-0.2-14-0.5c-2.3-0.2-6.6,0.4-8.4-0.6c-2.4-1.3-2.7-5-2.8-7.8C332.3,370.5,333,352,333,352z"/>
			<path class="st5" d="M370.3,344.9c-0.7,0.4-1,0.7-1.2,1.2C367.7,351.5,377.1,346.2,370.3,344.9"/>
		</g>
	</g>
</g>
<g id="FKap4d_2_">
	<g>
		<g>
			<path class="st6" d="M340.7,250.1c0.3-0.8,0.1-1.8,0.6-2.6c2.5-0.6,5.2-0.6,7.8,0c0.4,0.4,0.3,1,0.5,1.5"/>
			<path class="st7" d="M361.9,242.9c0.1-1.3,0.5-2.3,1.3-3c1.3-0.8,10.4-0.6,12,0.3c0.7,0.8,1.1,1.7,1.2,2.9"/>
			<path class="st8" d="M385.1,247.9c3.3-3.4,6.4-0.2,10.1,0.7l1.1,2.4"/>
			<path class="st9" d="M362.9,242.9c4,0.8,8.4,1.1,12.4,0.2"/>
			<path class="st10" d="M375.3,243.1c3.2,1,5.6,2.4,8.8,4.3s11.6,3.6,12.3,3.7s2.2-0.2,3.3-0.1c1.3,1.7,1,5.3,1,7.7
				c0.4,11.2,0.8,24.2,0.9,35.1c-20.1,2.3-40.6,0-60.9,0.2c-0.7-7.5-1.5-16.4-1.9-24.8c-0.3-6.8-1-13.9,0.7-18.9
				c0.3-0.2,0.7-0.1,1.1-0.2"/>
			<path class="st11" d="M340.7,250.1c2.8,0.7,5.9,0.1,8.9-0.5c5.5-2,8.7-6.1,13.3-6.8"/>
			<path class="st12" d="M350.4,273.7c0.7,6,5,10.7,9.4,13.6c13.4,8.9,30.1-3,30.5-17.9c0.2-9.2-9.4-18.4-18.1-19.6
				C359,247.8,348.5,259.7,350.4,273.7"/>
			<path class="st13" d="M353.7,275.3c3.2,11.7,19.6,16.1,27.9,7.6c6.3-6.4,7-18.4,1.2-24.3c-6.6-6.8-17.3-7.3-23.9-2.3
				C353.6,260.2,351.8,267.3,353.7,275.3"/>
			<path class="st14" d="M364.4,268.1c2.9-1.9,5.4-4.3,8.2-6.4"/>
			<path class="st15" d="M361.7,276.7c5.7-4.4,10.5-9.7,16.5-13.9"/>
			<path class="st14" d="M370,274.9c2.8-2.1,5.3-4.5,8.2-6.4"/>
			<path class="st16" d="M385.8,285.1c1.1,0,1.3-0.1,1.9,0.4C391.6,288.9,381.7,290,385.8,285.1"/>
		</g>
	</g>
</g>
<g id="DmJ9KM_2_">
	<g>
		<g>
			<path class="st17" d="M560.3,302.7c3.7,1.7,7.7,4,8.7,8.2c0,0,4.2-3.8,5-5.8C578.5,294.6,564,292.7,560.3,302.7"/>
			<path class="st18" d="M552.1,313c3,1.4,6.8,3.3,7.1,7.1"/>
			<path class="st19" d="M545.1,320.4c-3.7-1-8.6-2.1-12,0.4"/>
			<path class="st20" d="M525.9,353.9c1.1-4.9,2.4-9.2,4.1-13.2c0,0,9.8-14.9,15.2-20.3c2.3-2.3,6.6-7.8,6.6-7.8
				c1.1-1.6,6.6-8.2,8.6-9.9"/>
			<path class="st21" d="M525.9,353.9c-0.4,3.2,3.6,4,5.4,4.5c8.9,2.5,20.6-0.4,25.4-10.2c2.1-4.3,3.2-14.1-1.3-19.3"/>
			<path class="st22" d="M539.2,348c4.8-6,11.6-13.6,15.7-19.6c0,0,10.1-12.1,11.4-13.3l0.9-0.9c0,0,0.6,36.6,0.8,54.7
				c-16.6,2.7-33.7,2.5-50.4,3.2c-2.6-20.6-0.7-41.6-3.3-62.2c0.9-1.1,2.9-0.9,4.8-0.8c5.4,0.1,12.8-0.3,18.9-0.5
				c4.7-0.2,12.2-0.6,17.5-0.9"/>
			<path class="st23" d="M525.9,353.9c3-1.8,10.1-3.4,13.2-5.8c0.7-0.5,1-1.1,1.2-1.8"/>
			<path class="st24" d="M540.2,346.3c0-3.4-3.1-4.1-5.8-3c-0.1-1.6-2.7-3.1-4.3-2.6"/>
			<path class="st25" d="M556.4,311.4c1.3-1.4,2.7-2.8,4-4.1"/>
			<path class="st26" d="M559.1,313.4c1.2-1.6,2.7-2.9,4.1-4.4"/>
			<path class="st27" d="M561.7,315.2c1.2-1.2,2.3-2.5,3.5-3.7"/>
		</g>
	</g>
</g>
</svg>
