<?xml version="1.0" encoding="utf-8"?>
<!-- Generator: Adobe Illustrator 19.2.1, SVG Export Plug-In . SVG Version: 6.00 Build 0)  -->
<svg version="1.1" id="Layer_1" xmlns="http://www.w3.org/2000/svg" xmlns:xlink="http://www.w3.org/1999/xlink" x="0px" y="0px"
	 viewBox="0 0 80 80" style="enable-background:new 0 0 80 80;" xml:space="preserve">
<style type="text/css">
	.st0{fill:#3399FF;}
	.st1{fill:none;stroke:#000000;stroke-width:1.595;stroke-linecap:round;}
	.st2{fill:none;stroke:#000000;stroke-width:1.5983;stroke-linecap:round;}
	.st3{fill:none;stroke:#000000;stroke-width:1.7848;stroke-linecap:round;}
	.st4{fill:none;stroke:#000000;stroke-width:1.6703;stroke-linecap:round;}
	.st5{fill:none;stroke:#000000;stroke-width:1.749;stroke-linecap:round;}
	.st6{fill:none;stroke:#000000;stroke-width:1.5149;stroke-linecap:round;}
	.st7{fill:none;stroke:#000000;stroke-width:1.7552;stroke-linecap:round;}
	.st8{fill:none;stroke:#000000;stroke-width:1.7578;stroke-linecap:round;}
	.st9{fill:none;stroke:#000000;stroke-width:1.6945;stroke-linecap:round;}
	.st10{fill:none;stroke:#000000;stroke-width:1.681;stroke-linecap:round;}
	.st11{fill:none;stroke:#000000;stroke-width:1.7768;stroke-linecap:round;}
	.st12{fill:none;stroke:#000000;stroke-width:1.6701;stroke-linecap:round;}
	.st13{fill:none;stroke:#000000;stroke-width:1.478;stroke-linecap:round;}
	.st14{fill:none;stroke:#000000;stroke-width:1.2818;stroke-linecap:round;}
	.st15{fill:none;stroke:#000000;stroke-width:1.4806;stroke-linecap:round;}
	.st16{fill:none;stroke:#000000;stroke-width:1.4443;stroke-linecap:round;}
	.st17{fill:none;stroke:#000000;stroke-width:1.4337;stroke-linecap:round;}
	.st18{fill:none;stroke:#000000;stroke-width:1.6519;stroke-linecap:round;}
	.st19{fill:none;stroke:#000000;stroke-width:1.6754;stroke-linecap:round;}
	.st20{fill:none;stroke:#000000;stroke-width:1.6498;stroke-linecap:round;}
	.st21{fill:none;stroke:#000000;stroke-width:1.6901;stroke-linecap:round;}
	.st22{fill:none;stroke:#000000;stroke-width:1.6112;stroke-linecap:round;}
	.st23{fill:none;stroke:#000000;stroke-width:1.5341;stroke-linecap:round;}
	.st24{fill:none;stroke:#000000;stroke-width:1.6484;stroke-linecap:round;}
	.st25{fill:none;stroke:#000000;stroke-width:1.7814;stroke-linecap:round;}
	.st26{fill:none;stroke:#000000;stroke-width:1.3425;stroke-linecap:round;}
	.st27{fill:none;stroke:#000000;stroke-width:1.3894;stroke-linecap:round;}
	.st28{fill:none;stroke:#000000;stroke-width:1.4344;stroke-linecap:round;}
</style>
<g id="FKap4d_1_">
	<g>
		<g>
			<g>
				<path d="M8.9,23.1c-0.1,0-0.2,0-0.4-0.1c-0.6-0.2-0.9-0.8-0.7-1.4C8,21.4,8,21.1,8,20.8c0.1-0.6,0.2-1.4,0.6-2.1l0.2-0.4
					l0.4-0.1c2.9-0.6,5.9-0.6,8.7,0l0.2,0.1l0.2,0.2c0.6,0.5,0.7,1.2,0.8,1.6c0,0.1,0,0.3,0.1,0.3c0.3,0.5,0,1.2-0.5,1.5
					c-0.5,0.3-1.2,0-1.5-0.5c-0.2-0.3-0.2-0.7-0.3-0.9c0,0,0-0.1,0-0.1c-2.2-0.4-4.5-0.4-6.8,0c-0.1,0.2-0.1,0.5-0.1,0.8
					c0,0.4-0.1,0.9-0.3,1.4C9.8,22.8,9.4,23.1,8.9,23.1L8.9,23.1z"/>
			</g>
			<g>
				<path d="M46.6,15.7c-0.6,0-1.1-0.5-1.1-1c0-0.9-0.3-1.6-0.9-2.3c-1.6-0.7-9.7-0.9-11.3-0.3c-0.6,0.6-0.9,1.4-0.9,2.4
					c0,0.6-0.6,1.1-1.1,1c-0.6,0-1.1-0.5-1-1.1c0.1-1.5,0.7-2.9,1.7-3.9l0.2-0.2c1.8-1.1,11.8-0.8,13.8,0.3l0.3,0.2
					c0.9,1,1.5,2.4,1.5,3.8C47.7,15.1,47.3,15.6,46.6,15.7C46.7,15.7,46.6,15.7,46.6,15.7L46.6,15.7z"/>
			</g>
			<g>
				<path d="M67.7,24c-0.4,0-0.8-0.2-1-0.6l-0.9-2.1c-1-0.3-1.9-0.7-2.8-1.1c-2.9-1.2-4.5-1.8-6.4,0.2c-0.4,0.4-1.1,0.4-1.5,0
					c-0.4-0.4-0.4-1.1,0-1.5c3-3.1,6.1-1.8,8.7-0.6c1,0.4,1.9,0.8,2.9,1.1l0.5,0.1l1.3,3c0.2,0.5,0,1.1-0.5,1.4
					C68,23.9,67.8,24,67.7,24L67.7,24z"/>
			</g>
			<g>
				<path d="M40,16.2c-2.4,0-5-0.3-7.8-0.8c-0.6-0.1-0.9-0.7-0.8-1.2c0.1-0.6,0.7-0.9,1.2-0.8c4.8,0.9,9.1,1,12.7,0.2
					c0.6-0.1,1.1,0.2,1.2,0.8c0.1,0.6-0.2,1.1-0.8,1.2C44,16,42.1,16.2,40,16.2L40,16.2z"/>
			</g>
			<g>
				<path d="M51.8,70.5c-6.7,0-13.4-0.2-20-0.5c-7.5-0.3-15.2-0.5-22.8-0.4l-1,0l-0.3-4C7,58.4,6.3,50.1,5.9,42.3c0-1-0.1-2-0.2-2.9
					c-0.3-6.2-0.7-12.7,1-17.5l0.1-0.4l0.4-0.2C7.7,21,8,21,8.3,21c0.1,0,0.2,0,0.2,0c0.6-0.2,1.2,0.1,1.4,0.7
					c0.2,0.6-0.1,1.2-0.7,1.4c-0.2,0.1-0.5,0.1-0.6,0.1c-1.3,4.3-1,10-0.7,16.1c0.1,1,0.1,2,0.2,2.9c0.4,7.8,1.1,16,1.7,23.2
					l0.2,1.9c7.3,0,14.7,0.2,21.9,0.5c13.3,0.5,27.1,0.9,40.5-0.5c-0.2-11-0.6-23.9-1-36.1c0-0.5,0-1.1,0-1.7c0-1.9,0-4.2-0.6-5.5
					c-0.5,0-1.1,0-1.6,0.1c-0.5,0-1,0.1-1.3,0c-0.9,0-10.1-1.9-13.5-4c-3.1-1.9-5.7-3.4-9-4.4c-0.6-0.2-0.9-0.8-0.7-1.4
					c0.2-0.6,0.8-0.9,1.4-0.7c3.5,1.1,6.3,2.7,9.5,4.7c3,1.8,11.5,3.6,12.5,3.7c0.2,0,0.6,0,1,0c0.8-0.1,1.7-0.1,2.5,0l0.5,0.1
					l0.3,0.4c1.3,1.7,1.3,4.6,1.3,7.2c0,0.6,0,1.1,0,1.6c0.4,12.6,0.8,25.9,1,37.2l0,1l-1,0.1C66.4,70.2,59.1,70.5,51.8,70.5
					L51.8,70.5z"/>
			</g>
			<g>
				<path d="M11.9,23.4c-1.1,0-2.2-0.1-3.2-0.4c-0.6-0.1-0.9-0.7-0.8-1.3c0.1-0.6,0.7-0.9,1.3-0.8c2.7,0.7,5.6,0.1,8.7-0.5l0.2,0
					c2.4-0.9,4.4-2.3,6.4-3.5c2.5-1.7,4.9-3.2,7.8-3.6c0.6-0.1,1.1,0.3,1.2,0.9c0.1,0.6-0.3,1.1-0.9,1.2c-2.5,0.3-4.5,1.7-6.9,3.3
					c-2,1.3-4.2,2.8-6.9,3.8l-0.5,0.1C16.2,23,14,23.4,11.9,23.4L11.9,23.4z"/>
			</g>
			<g>
				<path d="M39.5,65.5C39.5,65.5,39.5,65.5,39.5,65.5c-3.9,0-7.6-1.1-10.9-3.4c-3.5-2.3-9.4-7.3-10.4-15c-1-7.2,1-14.3,5.5-19.5
					c4.7-5.4,11.5-7.9,18.6-6.9c9.2,1.3,20.2,11.3,19.9,21.7C62,54.7,51.4,65.5,39.5,65.5L39.5,65.5z M39.3,22.3
					c-5.4,0-10.4,2.3-14.1,6.5c-4.2,4.8-6,11.3-5.1,18c0.8,7,6.3,11.6,9.5,13.7c3.1,2,6.4,3.1,9.9,3.1c0,0,0,0,0,0
					c10.9,0,20.6-9.9,20.9-21.3c0.2-9.5-9.9-18.6-18.3-19.9C41.1,22.4,40.2,22.3,39.3,22.3L39.3,22.3z"/>
			</g>
			<g>
				<path d="M40.6,62.1L40.6,62.1c-7.5,0-16.3-4.6-18.6-13.3c-2.2-8.9,0-16.7,5.8-21c3.2-2.3,7.2-3.6,11.5-3.6
					c5.6,0,11.1,2.2,14.9,6.2c6.4,6.6,5.8,19.7-1.3,26.9C49.6,60.4,45.3,62.1,40.6,62.1L40.6,62.1z M39.2,25.8
					c-3.9,0-7.7,1.2-10.5,3.3c-5.2,3.9-7.2,11.1-5.2,19.3c2.2,7.9,10.2,12.1,17.1,12.1h0c4.3,0,8.3-1.6,11-4.4
					c6.4-6.5,7.1-18.7,1.3-24.6C49.4,27.9,44.4,25.8,39.2,25.8L39.2,25.8z"/>
			</g>
			<g>
				<path class="st0" d="M34,42c-0.3,0-0.6-0.1-0.8-0.4c-0.3-0.4-0.2-1,0.3-1.3c1.8-1.2,3.5-2.6,5.2-4c1.1-0.9,2.3-1.9,3.5-2.8
					c0.4-0.3,1-0.2,1.3,0.2c0.3,0.4,0.2,1-0.2,1.3c-1.2,0.9-2.3,1.8-3.4,2.7c-1.7,1.4-3.4,2.8-5.3,4.1C34.4,41.9,34.2,42,34,42
					L34,42z"/>
			</g>
			<g>
				<path class="st0" d="M31.1,51c-0.3,0-0.5-0.1-0.7-0.3c-0.3-0.4-0.2-1,0.2-1.3c2.6-2,5.1-4.2,7.5-6.4c3.1-2.8,6.4-5.8,10-8.3
					c0.4-0.3,1-0.2,1.2,0.2c0.3,0.4,0.2,1-0.2,1.2c-3.5,2.4-6.7,5.3-9.8,8.1c-2.4,2.2-4.9,4.4-7.6,6.5C31.5,51,31.3,51,31.1,51
					L31.1,51z"/>
			</g>
			<g>
				<path class="st0" d="M39.9,49.2c-0.3,0-0.6-0.1-0.7-0.4c-0.3-0.4-0.2-1,0.2-1.3c1.2-0.9,2.3-1.8,3.4-2.7
					c1.7-1.4,3.4-2.8,5.3-4.1c0.4-0.3,1-0.2,1.3,0.3c0.3,0.4,0.2,1-0.3,1.3c-1.8,1.2-3.5,2.6-5.2,4c-1.1,0.9-2.3,1.9-3.5,2.8
					C40.3,49.1,40.1,49.2,39.9,49.2L39.9,49.2z"/>
			</g>
			<g>
				<path d="M57.4,63.4c-1.2,0-2.1-0.5-2.5-1.3c-0.5-1-0.1-2.2,1.1-3.6l0.3-0.3l1.1,0c0.7,0,1.2,0.1,1.9,0.7
					c1.4,1.2,1.4,2.3,1.2,2.9C60,62.9,58.6,63.4,57.4,63.4L57.4,63.4z M57.1,59.9c-0.6,0.8-0.7,1.3-0.6,1.4c0.1,0.1,0.4,0.3,0.9,0.3
					c0.7,0,1.3-0.3,1.3-0.5c0-0.1-0.1-0.5-0.7-1c-0.3-0.2-0.3-0.2-0.7-0.2L57.1,59.9L57.1,59.9z"/>
			</g>
		</g>
	</g>
</g>
<g id="_x38_asZ20_2_">
	<g>
		<g>
			<path class="st1" d="M387,382.4c-3.6-1.3-5.5-5.3-8.8-7.2"/>
			<path class="st2" d="M333,352.3c-1.9,0.1-2.8,2.3-4.7,2.5c-0.7-4.2,0-9.4,0-13.4c2.1-0.5,2.8,1.9,4.3,2.5"/>
			<path class="st3" d="M387,382.4c0.1,0.3,0.3,0.8,0.5,1.2c0.9,0.5,2.3,0.2,3.1-0.4c1-14.7,2.7-29.4,3.6-44
				c-1.5-0.3-3.1-0.7-4.6-0.3c0,0-6.7,7.5-9.9,9.4"/>
			<path class="st4" d="M387,382.4c0.3-13.8,2.7-29.3,2.6-43.1"/>
			<path class="st5" d="M333,352c0.1-2.5,0.4-8.6,0.4-8.6c0.5-7.1,14.9-3.7,21-3.6c3.1,0.1,9.6,0.6,15,0.3c4-0.2,7.8-0.6,8.8,3.8
				c0.4,1.9,0.7,5.1,0.7,5.1c-0.6,8.3-1.2,16.7-1.4,25.1l-0.1,1.3c-0.9,5.4,2.1,9.3-5.2,10.5c-3.7,0.6-11.3-0.5-14.4-0.1
				c-3.3,0.4-8.9-0.2-14-0.5c-2.3-0.2-6.6,0.4-8.4-0.6c-2.4-1.3-2.7-5-2.8-7.8C332.3,370.5,333,352,333,352z"/>
			<path class="st6" d="M370.3,344.9c-0.7,0.4-1,0.7-1.2,1.2C367.7,351.5,377.1,346.2,370.3,344.9"/>
		</g>
	</g>
</g>
<g id="FKap4d_2_">
	<g>
		<g>
			<path class="st7" d="M340.7,250.1c0.3-0.8,0.1-1.8,0.6-2.6c2.5-0.6,5.2-0.6,7.8,0c0.4,0.4,0.3,1,0.5,1.5"/>
			<path class="st8" d="M361.9,242.9c0.1-1.3,0.5-2.3,1.3-3c1.3-0.8,10.4-0.6,12,0.3c0.7,0.8,1.1,1.7,1.2,2.9"/>
			<path class="st9" d="M385.1,247.9c3.3-3.4,6.4-0.2,10.1,0.7l1.1,2.4"/>
			<path class="st10" d="M362.9,242.9c4,0.8,8.4,1.1,12.4,0.2"/>
			<path class="st11" d="M375.3,243.1c3.2,1,5.6,2.4,8.8,4.3s11.6,3.6,12.3,3.7s2.2-0.2,3.3-0.1c1.3,1.7,1,5.3,1,7.7
				c0.4,11.2,0.8,24.2,0.9,35.1c-20.1,2.3-40.6,0-60.9,0.2c-0.7-7.5-1.5-16.4-1.9-24.8c-0.3-6.8-1-13.9,0.7-18.9
				c0.3-0.2,0.7-0.1,1.1-0.2"/>
			<path class="st12" d="M340.7,250.1c2.8,0.7,5.9,0.1,8.9-0.5c5.5-2,8.7-6.1,13.3-6.8"/>
			<path class="st13" d="M350.4,273.7c0.7,6,5,10.7,9.4,13.6c13.4,8.9,30.1-3,30.5-17.9c0.2-9.2-9.4-18.4-18.1-19.6
				C359,247.8,348.5,259.7,350.4,273.7"/>
			<path class="st14" d="M353.7,275.3c3.2,11.7,19.6,16.1,27.9,7.6c6.3-6.4,7-18.4,1.2-24.3c-6.6-6.8-17.3-7.3-23.9-2.3
				C353.6,260.2,351.8,267.3,353.7,275.3"/>
			<path class="st15" d="M364.4,268.1c2.9-1.9,5.4-4.3,8.2-6.4"/>
			<path class="st16" d="M361.7,276.7c5.7-4.4,10.5-9.7,16.5-13.9"/>
			<path class="st15" d="M370,274.9c2.8-2.1,5.3-4.5,8.2-6.4"/>
			<path class="st17" d="M385.8,285.1c1.1,0,1.3-0.1,1.9,0.4C391.6,288.9,381.7,290,385.8,285.1"/>
		</g>
	</g>
</g>
<g id="DmJ9KM_2_">
	<g>
		<g>
			<path class="st18" d="M560.3,302.7c3.7,1.7,7.7,4,8.7,8.2c0,0,4.2-3.8,5-5.8C578.5,294.6,564,292.7,560.3,302.7"/>
			<path class="st19" d="M552.1,313c3,1.4,6.8,3.3,7.1,7.1"/>
			<path class="st20" d="M545.1,320.4c-3.7-1-8.6-2.1-12,0.4"/>
			<path class="st21" d="M525.9,353.9c1.1-4.9,2.4-9.2,4.1-13.2c0,0,9.8-14.9,15.2-20.3c2.3-2.3,6.6-7.8,6.6-7.8
				c1.1-1.6,6.6-8.2,8.6-9.9"/>
			<path class="st22" d="M525.9,353.9c-0.4,3.2,3.6,4,5.4,4.5c8.9,2.5,20.6-0.4,25.4-10.2c2.1-4.3,3.2-14.1-1.3-19.3"/>
			<path class="st23" d="M539.2,348c4.8-6,11.6-13.6,15.7-19.6c0,0,10.1-12.1,11.4-13.3l0.9-0.9c0,0,0.6,36.6,0.8,54.7
				c-16.6,2.7-33.7,2.5-50.4,3.2c-2.6-20.6-0.7-41.6-3.3-62.2c0.9-1.1,2.9-0.9,4.8-0.8c5.4,0.1,12.8-0.3,18.9-0.5
				c4.7-0.2,12.2-0.6,17.5-0.9"/>
			<path class="st24" d="M525.9,353.9c3-1.8,10.1-3.4,13.2-5.8c0.7-0.5,1-1.1,1.2-1.8"/>
			<path class="st25" d="M540.2,346.3c0-3.4-3.1-4.1-5.8-3c-0.1-1.6-2.7-3.1-4.3-2.6"/>
			<path class="st26" d="M556.4,311.4c1.3-1.4,2.7-2.8,4-4.1"/>
			<path class="st27" d="M559.1,313.4c1.2-1.6,2.7-2.9,4.1-4.4"/>
			<path class="st28" d="M561.7,315.2c1.2-1.2,2.3-2.5,3.5-3.7"/>
		</g>
	</g>
</g>
</svg>
