<?xml version="1.0" encoding="utf-8"?>
<!-- Generator: Adobe Illustrator 19.2.1, SVG Export Plug-In . SVG Version: 6.00 Build 0)  -->
<svg version="1.1" id="Layer_1" xmlns="http://www.w3.org/2000/svg" xmlns:xlink="http://www.w3.org/1999/xlink" x="0px" y="0px"
	 viewBox="0 0 80 80" style="enable-background:new 0 0 80 80;" xml:space="preserve">
<style type="text/css">
	.st0{fill:none;stroke:#FFCC00;stroke-width:2;stroke-linecap:round;stroke-linejoin:round;stroke-miterlimit:10;}
	.st1{fill:none;stroke:#000000;stroke-width:2;stroke-linejoin:round;stroke-miterlimit:10;}
</style>
<path d="M-199-6.1c0.5-0.5-0.1-1,1-1c19.7,0.6,56.6,2.9,83,4c8,0.3,17.2-0.9,19,1c0,0-0.2,14.7,0,19c0.6,14.8,0.7,20.2,0,38
	c-0.2,6.2-0.5,16.3-1,17c-1.4,1.8-9.8,0.9-17,1c-16.1,0.2-46.9-3.3-62-3c-3.5,0.1-6.1,1.1-8,1c-3.2-0.1-18.1-0.8-20-4
	c-0.6-1.1,1.5-11.6,2-16c0.8-7.3,0.6-11.3,0.9-15.8c1.2-16.9-3.1-26.2,1.1-39.2C-199.9-4.4-199.3-5.8-199-6.1z M-165,27.9
	c4.1,4.7,11.8,16.1,17,16c4.8-0.1,14.7-12.7,17-15c9.9-10,19.9-17.3,27-27c-30.1-1.9-57.8-5.3-90-4C-186.5,6.1-173.6,17.8-165,27.9z
	 M-198,57.9c5.2-7.9,12.9-16.3,19-24c6.8-8.5,5.8-8.7,0-15c-6.7-7.3-12.1-13.5-18-19C-195.9,21.1-197.1,40.9-198,57.9z M-100,7.9
	c-0.2-0.8-0.8-1.2-2-1c-2.6,4.7-7.4,6.8-12,11c-3.2,2.9-11,9.4-11,13c0,1.2,4.4,5.7,6,8c6.2,9,12.2,16.8,18,24
	C-98.8,46.4-100.6,26-100,7.9z M-172,31.9c-2.3,2.8-6.9,8.3-13,16c-2.2,2.8-13.2,14.5-12,17s10.6,2.1,14,2c15.3-0.4,23.1,0.5,43,1
	c8,0.2,33,2,35,0c1.9-1.9-3-6-5-9c-4.8-7.1-8.7-10.7-13-17s-4-11.3-11-5c-4.1,3.8-10.5,13.2-15,13s-12.8-12.8-18-19
	c-1.2-1.4-1.9-1.1-2.7-0.9C-170.9,30.2-171.4,31.1-172,31.9z"/>
<g>
	<path class="st0" d="M-350.3-98c-4.9,0-5.6,0.8-6.4,5.7c-0.6,3.2-0.4,6.6-1.1,9.7c-1,4.7-0.7,9.5-0.9,14.1
		c-0.3,5.4,0.3,11,0.4,16.4c0.3,8.4,3.9,11.9,12.1,12.8c4.7,0.5,9.4,0.3,14.1,0.5c7.2,0.3,14.3-0.3,21.5-0.2c2.4,0,4.7-0.5,7.1-0.9
		c1.5-0.3,2.3-0.8,2.3-2.4c0-1.7,0.3-3.5,0.3-5.2c-0.2-7.7-0.7-15.3,0.4-23c0.8-5.2,1.3-10.5,2.1-15.8c0.9-5.9-2-10.5-7.4-10.7
		c-4.7-0.1-9.4-1-14.1-0.8C-323.2-97.7-343.5-98.1-350.3-98z"/>
	<path class="st0" d="M61,71.5c2.3,0.7,3,0,3.1-2.4c0.4-15,0.2-30,0.3-45c0-3.8,0.4-7.6,0-11.4C64.2,11,64.1,10.1,62,10
		c-7.2-0.4-14.3-1.3-21.5-1.7C35.1,8,29.8,8.5,24.4,8.5c-1.8,0-3.8,0.5-5.7,0.6c-0.5,0-1.4,0.1-1.3,1c0.4,6.5,0.1,14.4,0.4,19.5
		c0.2,5.1-0.2,8.6-0.6,12.8c-0.8,6.6-1.2,13.3-1.4,20c-0.1,1.3-0.2,2.8-0.3,4c-0.4,3.6,1.9,4.3,4.2,4c10.6-1.7,21.1,0.6,31.6,0.8
		c2.1,0,4.3,0,6.4,0C57.6,71.2,60,71.2,61,71.5z"/>
	<path class="st0" d="M-39.4-78.8c10.7,10.9,20.3,22.9,31.5,33.4c2.6-1.2,4.5-3.2,6.4-4.9c8.6-8.1,17-16.3,25.6-24.4
		c1.9-1.8,0.7-2.4-0.7-3c-0.7-0.3-1.6-0.4-2.3-0.4c-9,0.2-17.8-0.9-26.6-1.2c-10.6-0.3-21.2-1.3-31.9-1.3c-1.7,0-2.5,0.4-3,1.8
		c-1,2.8-0.7,4.9-0.7,8.8c0,0.8,0,1.8,0.1,2.7c0.1,9.1,0.2,18.2-1.7,27.2c-0.3,1.5,0.1,3,0.7,4.4"/>
	<path class="st0" d="M25.1-76.4c2.2,3.3,1.1,8.3,1.2,11.7c0.3,8.3,0,16.6,0.1,24.8c0,2.9,0.1,6-0.6,8.7c-0.3,1-2.9,0.8-4.1,0.8
		c-4.5,0-9,0.4-13.4,0.2C1.9-30.5-4.5-30-10.9-30.8c-8.5-1-17-0.5-25.5-0.7c-1,0-1.8-0.3-2.7-0.7c-4.3-1.4-4.2-1.5-1.4-4.8
		c3.7-4.3,6.8-9.1,10.5-13.3c2.7-3,4.7-6.6,8-9.1"/>
	<path class="st0" d="M-325.4-72.9c1.7-0.2,3.4-1.7,4.7-2.6c5.8-4.1,9.6-2.4,11.5,3.3c1.3,3.9,1.6,7.8,0.9,11.8
		c-0.3,1.9-0.1,3.8-0.3,5.7c-0.2,1.8-0.9,3-3,2.7c-0.9-0.1-1.8-0.1-2.7,0c-1.8,0.2-2.3-0.6-2.4-2.4c-0.2-3.2,0.4-6.3,0.8-9.4
		c0.3-2.8-0.4-5.4-3.1-6.2c-2.3-0.7-3.8,1.7-5.3,3.2c-1.3,1.2-1.6,2.8-1.6,4.4c0,2.9-0.3,5.8,0.3,8.7c0.4,2.1-0.4,3.4-2.7,3
		c-1.2-0.3-2.8,1.5-3.7-0.6"/>
	<path class="st0" d="M-345.6-76.2c-0.6,6.9-0.9,13.9-0.6,20.8c0.1,1.3-2.1,2.9,0.3,4c1.9,0.9,3.7,0.9,5.7,0.1
		c1.3-0.6,1.4-1.1,1.4-2.4c-0.1-7-0.4-13.9,1-20.8c0.4-1.9-0.4-2.4-2-2.4c-2.2,0-4.5-0.1-6.7,0.3"/>
	<path class="st0" d="M23.4,44.6c11.3,1.3,22.6,1.2,33.9,0.7"/>
	<path class="st0" d="M6.6-56.6c5.5,7.5,11,15,16.5,22.5c0.4,0.5,2.3,2.5,2.8,3"/>
	<path class="st0" d="M21.7,59.1c6.8,0.2,13.7,0.5,20.5,0.9c4.4,0.2,8.7,0.3,13.1,0.5"/>
	<path class="st0" d="M-343.6-89.3c-0.6,0.4-1.2,0.9-1.6,1.4c-1.1,1.3-1.7,3.2-1,4.6c0.9,1.6,3.1,1.4,4.6,1c1.7-0.5,3.2-1.7,3.1-3.9
		c-0.1-3.3-2.5-3-4.7-3"/>
	<path class="st0" d="M59.3,22.1c-6.3,0.4-12.5-0.8-18.8-0.7"/>
	<path class="st0" d="M31.4,25.2c0.3-0.9,1.1-1.3,1.7-2c2.8-3.6,1.1-8.1-3.4-9.1c-4.4-1-5.9,0.1-5.7,4.7c0.3,5.9,0.9,11.9,1.3,17.8"
		/>
	<path class="st0" d="M-325.4-72.9c0.4-1.9,0.3-1.5-0.1-2.9c-0.8-2.6-3-0.8-4.6-1c-1.8-0.2-1.7,1-2.1,2.3c-1.7,6.8,0.8,13.5,0,20.2
		c-0.1,0.9,0,1.9,0,3"/>
	<path class="st0" d="M39.8,28.2c4.4,0,8.7,0,13.1,0c1.9,0,3.8,0.2,5.7,0.3"/>
	<path class="st0" d="M55.6,52.4c-8.6,0-17.2-0.2-25.9-0.6c-2.2-0.1-4.3,0.1-6.4-0.7"/>
	<path class="st0" d="M25.4,25.5c0.2,0,0.5,0,0.7,0c6.4-1.1,7.2,0.1,8.4,6.7c0.3,1.7,0.4,3.5,2.3,4.4"/>
	<path class="st0" d="M59.3,16.8c-6.3,0-12.5-0.9-18.8-0.3"/>
</g>
<g id="DmJ9KM_1_">
	<g>
		<g>
			<g>
				<path d="M23.8-151.1c-0.5,0-0.9-0.4-1-0.9c-0.5-4-4.8-6-8.3-7.5l-0.7-0.3c-0.5-0.2-0.7-0.8-0.5-1.4c0.2-0.5,0.8-0.7,1.4-0.5
					l0.7,0.3c3.7,1.7,8.9,4,9.5,9.1c0.1,0.6-0.3,1.1-0.9,1.1C23.9-151.1,23.8-151.1,23.8-151.1L23.8-151.1z"/>
			</g>
			<g>
				<path d="M14.4-139.9c-0.5,0-1-0.4-1-0.9c-0.3-3.2-4.7-6.3-8.4-8.1c-0.5-0.2-0.7-0.9-0.5-1.4s0.9-0.7,1.4-0.5
					c2.1,1,9.1,4.7,9.5,9.8C15.5-140.5,15.1-140,14.4-139.9C14.5-139.9,14.4-139.9,14.4-139.9L14.4-139.9z"/>
			</g>
			<g>
				<path d="M-14.6-140.6c-0.3,0-0.6-0.1-0.8-0.4c-0.3-0.5-0.2-1.1,0.2-1.4c4.2-3.1,10.1-1.5,13.6-0.6c0.5,0.1,0.9,0.7,0.7,1.2
					c-0.1,0.5-0.7,0.9-1.2,0.7c-4.3-1.1-8.7-2-11.8,0.3C-14.2-140.7-14.4-140.6-14.6-140.6L-14.6-140.6z"/>
			</g>
			<g>
				<path d="M-22.3-105.6c-0.1,0-0.2,0-0.2,0c-0.6-0.1-0.9-0.7-0.8-1.3c1.2-5.3,2.6-9.9,4.4-14.1l0.1-0.2
					c0.4-0.6,10.5-15.9,16.2-21.6c2.3-2.3,6.8-8.1,6.9-8.2c1.1-1.6,7-8.7,9.2-10.6c0.4-0.4,1.1-0.3,1.5,0.1c0.4,0.4,0.3,1.1-0.1,1.5
					c-1.9,1.7-7.7,8.6-8.9,10.3c-0.2,0.3-4.6,6-7.1,8.4c-5.3,5.3-15,20-15.8,21.2c-1.7,4.1-3.1,8.6-4.3,13.7
					C-21.4-105.9-21.8-105.6-22.3-105.6L-22.3-105.6z"/>
			</g>
			<g>
				<path d="M-10-100c-2.4,0-4.7-0.3-6.8-0.9l-0.4-0.1c-2.1-0.6-6.4-1.7-6-5.7c0.1-0.5,0.5-0.9,1.1-0.9c0.5,0.1,0.9,0.6,0.9,1.1
					c-0.2,2.1,2.1,3,4.5,3.6l0.5,0.1c8.8,2.4,20.8-0.3,25.8-10.3c2.3-4.6,3-14.5-1.2-19.4c-0.4-0.4-0.3-1.1,0.1-1.4
					c0.4-0.4,1-0.3,1.4,0.1c5,5.8,4,16.4,1.5,21.6C7-103.7-1.8-100-10-100L-10-100z"/>
			</g>
			<g>
				<path d="M-31.9-86.3l-0.1-0.9c-1.4-10.9-1.6-22.2-1.8-33s-0.4-22-1.7-32.8v-0.4l0.2-0.3c1.1-1.4,3-1.4,4.9-1.3
					c0.3,0,0.6,0,0.9,0c4.4,0.1,9.9-0.1,15.2-0.3c1.6-0.1,3.2-0.1,4.7-0.2c3-0.1,7.1-0.3,11-0.5c2.6-0.1,5.2-0.3,7.5-0.4
					c0.5,0,1,0.4,1,0.9s-0.4,1-0.9,1c-2.2,0.1-4.8,0.2-7.5,0.4c-4,0.2-8.1,0.4-11.1,0.5c-1.5,0.1-3.1,0.1-4.7,0.2
					c-5.4,0.2-10.9,0.4-15.3,0.3c-0.3,0-0.6,0-0.9,0c-1.2,0-2.5-0.1-3.1,0.3c1.3,10.8,1.5,21.8,1.7,32.5c0.2,10.5,0.4,21.4,1.6,31.9
					c4-0.2,8-0.3,12-0.4c13.1-0.4,26.6-0.8,39.6-2.8c-0.1-5-0.1-11.3-0.2-17.8c-0.2-16.8-0.4-35.8-0.6-39.6c0-0.5,0.4-1,0.9-1
					s1,0.4,1,0.9c0.2,3.8,0.4,22.8,0.6,39.6c0.1,6.9,0.2,13.5,0.2,18.6v0.8L22.4-90C9-87.8-4.8-87.4-18.2-87
					c-4.2,0.1-8.6,0.2-12.8,0.4L-31.9-86.3L-31.9-86.3z"/>
			</g>
			<g>
				<path d="M-8.2-111.8c-0.2,0-0.4-0.1-0.6-0.2c-0.4-0.3-0.5-0.9-0.1-1.3c1.7-2.1,3.6-4.4,5.6-6.7c4-4.8,8.1-9.7,11-14
					c0.2-0.2,10.5-12.2,11.7-13.8l3.7-4.5c1-1.3,1.8-2.9,2.3-4.6c0.9-3,0.1-5.3-2-6.2c-2.8-1.2-5.7-0.4-8.4,3
					c-0.3,0.4-0.9,0.6-1.3,0.3c-0.4-0.3-0.6-0.9-0.3-1.3c3.1-4.3,7.3-5.3,10.8-3.7c2.3,1,4.4,3.8,3,8.5c-0.7,2.3-2.2,4.8-2.6,5.3
					l-3.7,4.5c-1.3,1.6-11.3,13.3-11.7,13.7c-2.8,4.3-7,9.2-11,14c-2,2.4-3.9,4.6-5.5,6.7C-7.6-112-7.9-111.8-8.2-111.8L-8.2-111.8z
					"/>
			</g>
			<g>
				<path d="M-22.3-105.6c-0.4,0-0.7-0.2-0.9-0.5c-0.3-0.5-0.1-1.1,0.4-1.4c1.5-0.9,3.6-1.6,5.9-2.5c2.9-1,6.2-2.2,7.9-3.6
					c0.5-0.4,0.7-0.8,0.8-1.3c0.1-0.6,0.6-0.9,1.2-0.8s0.9,0.6,0.8,1.2c-0.2,1-0.7,1.9-1.6,2.6c-2,1.5-5.3,2.7-8.5,3.9
					c-2.2,0.8-4.3,1.6-5.6,2.3C-21.9-105.7-22.1-105.6-22.3-105.6L-22.3-105.6z"/>
			</g>
			<g>
				<path d="M-7.1-113.6c-0.6,0-1.1-0.5-1.1-1.1c0-1-0.3-1.8-1-2.2c-0.9-0.6-2.3-0.6-3.7,0l-1.4,0.6l-0.1-1.5c0-0.2-0.3-0.7-0.9-1.1
					c-0.7-0.5-1.7-0.8-2.2-0.6c-0.6,0.2-1.2-0.2-1.4-0.7c-0.2-0.6,0.2-1.2,0.7-1.4c1.5-0.4,3.1,0.2,4.1,0.9c0.6,0.4,1.1,0.9,1.4,1.5
					c1.7-0.4,3.4-0.3,4.6,0.6c0.9,0.6,1.9,1.7,2,4C-5.9-114.1-6.4-113.6-7.1-113.6C-7-113.6-7.1-113.6-7.1-113.6L-7.1-113.6z"/>
			</g>
			<g>
				<path d="M10.1-150.7c-0.2,0-0.4-0.1-0.6-0.2c-0.3-0.3-0.3-0.8,0-1.2c0.7-0.8,1.4-1.5,2.2-2.2c0.7-0.7,1.4-1.4,2.1-2.2
					c0.3-0.3,0.8-0.3,1.2,0c0.3,0.3,0.3,0.8,0,1.2c-0.7,0.7-1.4,1.4-2.1,2.2c-0.7,0.7-1.4,1.5-2.1,2.2
					C10.5-150.8,10.3-150.7,10.1-150.7L10.1-150.7z"/>
			</g>
			<g>
				<path d="M12.9-148.6c-0.2,0-0.4-0.1-0.5-0.2c-0.4-0.3-0.4-0.8-0.1-1.2c1.1-1.3,2.3-2.6,3.5-3.7l0.9-0.9c0.3-0.3,0.9-0.3,1.2,0
					c0.3,0.3,0.3,0.9,0,1.2l-0.9,0.9c-1.1,1.1-2.3,2.3-3.3,3.6C13.4-148.7,13.2-148.6,12.9-148.6L12.9-148.6z"/>
			</g>
			<g>
				<path d="M15.6-146.7c-0.2,0-0.4-0.1-0.6-0.2c-0.4-0.3-0.4-0.9,0-1.3l0.3-0.3c1.1-1.2,2.3-2.4,3.4-3.6c0.3-0.3,0.9-0.3,1.3,0
					c0.3,0.3,0.3,0.9,0,1.3c-1.2,1.2-2.3,2.4-3.4,3.5l-0.3,0.3C16.1-146.7,15.8-146.7,15.6-146.7L15.6-146.7z"/>
			</g>
		</g>
	</g>
</g>
<path class="st1" d="M188.1-46.5c4.2,0.9,11.4-4.6,11.4-4.6s-2.9,8.1-8.4,9.7c3.9,0.9,9.8-2.9,9.8-2.9s-1.8,6.7-11.3,7.9
	c-0.9,23-38.9,45.7-60.5,18.8c3.8,1.3,15.9,3.8,20.8-2.8c-10.7-3.8-13-11.4-13-11.4s6.4,1.8,6.9,0c-11.1-8.2-10.4-19.4-8.1-21.5
	c1.5,2.6,5.3,4.7,5.3,4.7s-2.7-17.3,3.3-17.9c0,1.8,3.8,21,20.9,21.6C164.5-51.9,179.8-66.5,188.1-46.5z"/>
<g>
	<g>
		<path d="M-439.1-257.4c-1.4,0-2.9,0-4.3-0.1c-1.7-0.1-3.5-0.1-5.2-0.1c-2.9,0-6-0.1-9-0.4c-8.8-0.9-12.7-5.1-13-13.7
			c-0.1-1.7-0.1-3.4-0.2-5.1c-0.2-3.8-0.4-7.7-0.2-11.4c0.1-1.4,0.1-2.8,0.1-4.2c0.1-3.3,0.1-6.7,0.8-10.1c0.4-1.6,0.5-3.3,0.6-5.1
			c0.1-1.5,0.2-3,0.5-4.5c0.9-5.5,2-6.5,7.4-6.5l0,0c3.4,0,9.9,0.1,16.3,0.1c6.4,0.1,12.4,0.2,13.9,0.1c2.8-0.1,5.6,0.2,8.3,0.4
			c1.9,0.2,3.9,0.4,5.8,0.4c2.6,0.1,4.8,1.1,6.3,2.9c1.9,2.2,2.6,5.4,2.1,8.9c-0.4,2.5-0.7,5.1-1,7.5c-0.3,2.7-0.7,5.5-1.1,8.2
			c-1,6.5-0.7,13.1-0.5,19.5c0,1.1,0.1,2.2,0.1,3.3c0,1,0,1.9-0.1,2.9c-0.1,0.8-0.1,1.6-0.1,2.4c0,2.5-1.7,3.1-3.2,3.4l-0.9,0.2
			c-2.1,0.4-4.2,0.8-6.4,0.8c-3.2-0.1-6.5,0-9.6,0.1C-434-257.4-436.5-257.4-439.1-257.4z M-461.4-316.7c-4.4,0-4.7,0.3-5.4,4.9
			c-0.2,1.4-0.4,2.9-0.5,4.4c-0.1,1.8-0.3,3.6-0.7,5.4c-0.7,3.2-0.8,6.5-0.8,9.8c0,1.4,0,2.8-0.1,4.2c-0.2,3.7,0,7.5,0.2,11.2
			c0.1,1.7,0.2,3.4,0.2,5.1c0.2,7.8,3.3,11,11.2,11.8c2.9,0.3,5.9,0.3,8.8,0.4c1.7,0,3.5,0,5.2,0.1c3.9,0.2,7.9,0,11.7-0.1
			c3.2-0.1,6.5-0.2,9.7-0.1c2,0,3.9-0.3,6-0.7l0.9-0.2c1.4-0.3,1.5-0.6,1.5-1.4c0-0.9,0.1-1.7,0.1-2.5c0.1-0.9,0.1-1.8,0.1-2.6
			c0-1.1-0.1-2.2-0.1-3.3c-0.2-6.5-0.5-13.2,0.5-19.9c0.4-2.7,0.7-5.5,1.1-8.2c0.3-2.5,0.6-5.1,1-7.6c0.4-3-0.1-5.6-1.6-7.3
			c-1.2-1.4-2.8-2.1-4.8-2.2s-4-0.2-6-0.4c-2.6-0.3-5.4-0.5-8.1-0.4c-1.6,0.1-7.6,0-14-0.1C-451.5-316.6-458.1-316.7-461.4-316.7
			L-461.4-316.7z M-461.4-317.7L-461.4-317.7L-461.4-317.7z"/>
	</g>
	<g>
		<path d="M-333.7-254.6c-0.6,0-1.2-0.2-1.7-0.3l0,0c-0.6-0.2-2.2-0.3-3.1-0.3h-2c-1.5,0-2.9,0-4.4,0c-3.7,0-7.5-0.4-11.2-0.7
			c-6.6-0.6-13.5-1.1-20.2-0.1c-1.8,0.3-3.2-0.1-4.2-1c-0.9-0.9-1.3-2.3-1.2-4.1c0.1-1,0.2-2.6,0.3-3.9c0.3-8.1,0.8-14.4,1.4-20.2
			c0.1-0.9,0.2-1.8,0.3-2.8c0.4-3.2,0.8-6.5,0.3-9.7c-0.7-3.9-0.5-7.9-0.4-11.7c0.1-2.6,0.2-5.3,0-7.9c0-0.7,0.2-1.1,0.4-1.3
			c0.6-0.6,1.5-0.7,1.8-0.7c0.8,0,1.6-0.2,2.5-0.3c1.1-0.1,2.2-0.3,3.3-0.3c2.1,0,4.3-0.1,6.4-0.2c3.2-0.1,6.5-0.2,9.8-0.1
			c3.5,0.2,7,0.5,10.4,0.8c3.6,0.3,7.4,0.7,11.1,0.9c3,0.2,3.2,2,3.4,3.6c0.3,2.7,0.2,5.4,0.1,8.1c0,1.2-0.1,2.3-0.1,3.5
			c-0.1,5.6-0.1,11.3-0.1,16.7c0,9.3,0,18.8-0.3,28.3c0,1.2-0.2,2.5-1.2,3.2C-332.7-254.7-333.2-254.6-333.7-254.6z M-338.5-257.3
			c0.3,0,2.5,0.1,3.6,0.4l0,0c1.1,0.3,1.4,0.2,1.4,0.2s0.3-0.3,0.3-1.6c0.3-9.4,0.3-19,0.3-28.2c0-5.5,0-11.2,0.1-16.8
			c0-1.2,0.1-2.3,0.1-3.5c0.1-2.6,0.2-5.2-0.1-7.8c-0.2-1.6-0.2-1.8-1.5-1.8c-3.8-0.2-7.5-0.5-11.2-0.9c-3.4-0.3-6.9-0.6-10.3-0.8
			c-3.2-0.2-6.5-0.1-9.6,0.1c-2.1,0.1-4.3,0.2-6.4,0.2c-0.9,0-2,0.1-3,0.3c-0.9,0.1-1.7,0.2-2.6,0.3c-0.2,0-0.3,0-0.4,0
			c0.2,2.7,0.1,5.4,0,7.9c-0.1,3.7-0.3,7.6,0.4,11.3c0.6,3.5,0.2,7-0.3,10.3c-0.1,0.9-0.2,1.8-0.3,2.7c-0.6,5.8-1,12-1.4,20.1
			c-0.1,1.4-0.2,3-0.3,4.1c-0.1,1.2,0.1,2,0.5,2.4c0.6,0.6,1.9,0.5,2.5,0.4c7-1.1,14-0.5,20.7,0.1c3.6,0.3,7.4,0.6,11,0.7
			c1.4,0,2.9,0,4.3,0L-338.5-257.3z"/>
	</g>
	<g>
		<path d="M-442-269c-0.8,0-1.6-0.3-2.2-1.6c-0.2-0.5,0-1.1,0.5-1.3c0.5-0.2,1.1,0,1.3,0.5c0.2,0.5,0.2,0.5,1.1,0.2
			c0.6-0.2,1.2-0.4,1.9-0.2c0.6,0.1,1.1,0.1,1.3-0.1c0.3-0.3,0.3-0.9,0.1-1.6c-0.5-2.2-0.4-4.4-0.3-6.5c0-0.8,0-1.6,0-2.4
			c0-2.2,0.6-3.9,2-5.1c0.3-0.3,0.6-0.6,0.9-0.9c1.3-1.4,3-3.2,5.4-2.5c2.8,0.8,4.2,3.4,3.8,7.3c-0.1,0.9-0.2,1.7-0.3,2.6
			c-0.3,2.3-0.6,4.4-0.4,6.6c0.1,0.9,0.2,1.2,0.3,1.3c0.1,0.1,0.5,0.2,1,0.1c0.9-0.1,1.9-0.1,2.9,0c0.6,0.1,1,0,1.3-0.2
			s0.5-0.8,0.6-1.6c0.1-0.8,0.1-1.5,0.1-2.3c0-1.1,0-2.3,0.2-3.5c0.7-3.8,0.4-7.5-0.9-11.3c-0.9-2.6-2.1-4.2-3.6-4.7
			c-1.6-0.5-3.8,0.1-6.3,1.9c-0.2,0.2-0.4,0.3-0.7,0.5c-1.3,0.9-2.8,2.1-4.5,2.3c-0.6,0-1-0.4-1.1-0.9s0.4-1,0.9-1.1
			c1.1-0.1,2.5-1.1,3.5-1.9c0.3-0.2,0.5-0.4,0.7-0.5c3.1-2.2,5.8-2.9,8.1-2.2c2.2,0.7,3.8,2.7,4.9,6c1.3,4.1,1.6,8.1,0.9,12.2
			c-0.2,1-0.2,2-0.2,3.1c0,0.8,0,1.7-0.1,2.5c-0.1,1.4-0.6,2.4-1.4,3c-0.7,0.6-1.6,0.8-2.8,0.6c-0.8-0.1-1.7-0.1-2.5,0
			c-1.1,0.1-1.9-0.1-2.5-0.6c-0.8-0.7-1-1.8-1-2.7c-0.1-2.4,0.2-4.7,0.4-7c0.1-0.9,0.2-1.7,0.3-2.6c0.2-2-0.1-4.5-2.4-5.2
			c-1.1-0.3-2,0.5-3.4,2c-0.3,0.4-0.7,0.7-1,1c-0.9,0.8-1.3,2-1.3,3.6c0,0.8,0,1.7,0,2.5c-0.1,2.1-0.1,4.1,0.3,6.1
			c0.4,1.9-0.2,2.9-0.7,3.5c-0.5,0.5-1.5,1-3.2,0.7c-0.2,0-0.5,0.1-0.8,0.2C-441-269.2-441.5-269-442-269z"/>
	</g>
	<g>
		<path d="M-454.1-269.4c-1.1,0-2.2-0.3-3.4-0.8c-0.8-0.4-1.3-0.9-1.6-1.5c-0.3-0.9,0.1-1.8,0.4-2.5c0.1-0.3,0.3-0.7,0.3-0.9
			c-0.2-6-0.1-12.5,0.5-20.2c-0.5,0-0.8-0.4-0.9-0.8c-0.1-0.5,0.3-1.1,0.8-1.2c2.3-0.4,4.6-0.3,6.9-0.4c0.9,0,2,0.1,2.6,0.9
			c0.5,0.6,0.6,1.5,0.4,2.7c-1.2,6-1.1,12.3-1,18.3v2.3c0,1.5-0.1,2.6-2,3.4C-452-269.6-453.1-269.4-454.1-269.4z M-455.8-295.5
			c-0.6,7.8-0.8,14.3-0.6,20.4c0,0.7-0.3,1.3-0.5,1.8c-0.1,0.3-0.4,0.8-0.3,0.9c0,0.1,0.2,0.2,0.5,0.4c1.7,0.8,3.2,0.8,4.9,0.1
			c0.8-0.3,0.8-0.4,0.8-1.5v-2.3c-0.1-6.2-0.2-12.5,1-18.8c0.2-0.8,0-1,0-1s-0.1-0.2-1.1-0.2C-452.6-295.6-454.2-295.6-455.8-295.5z
			"/>
	</g>
	<g>
		<path d="M-352.9-280.8c-6.3,0-13.1-0.3-20-1c-0.5-0.1-0.9-0.6-0.9-1.1c0.1-0.5,0.6-0.9,1.1-0.9c12.4,1.4,24.5,1.1,33.8,0.7
			c0.5,0,1,0.4,1,1s-0.4,1-1,1C-343-280.9-347.8-280.8-352.9-280.8z"/>
	</g>
	<g>
		<g>
			<path d="M130.9-105.6c-0.4,0-0.8-0.2-0.9-0.6c-0.5-1.4-1.1-3.2-0.7-4.9c1.8-8.7,1.7-17.6,1.6-26.3v-0.7c0-0.4,0-0.8,0-1.2
				c0-0.5,0-1.1,0-1.5c0-0.8,0-1.5,0-2.1c0-2.6,0-4.5,0.8-7c0.7-2.2,2.3-2.5,4-2.5c6.5,0,13,0.4,19.3,0.7c4.2,0.2,8.5,0.5,12.7,0.6
				c3.4,0.1,6.9,0.3,10.2,0.6c5.3,0.4,10.9,0.7,16.3,0.6c1.1,0,2,0.1,2.8,0.4c0.9,0.4,2.1,0.9,2.3,2.1c0.2,1.1-0.6,2-1.3,2.6
				c-4.1,3.9-8.3,7.9-12.3,11.7c-4.4,4.2-8.9,8.5-13.3,12.7l-0.6,0.5c-1.8,1.7-3.6,3.4-6.1,4.6c-0.4,0.2-0.8,0.1-1.1-0.2
				c-6.7-6.3-12.9-13.1-18.8-19.8c-4-4.4-8.1-8.9-12.3-13.3c-0.5,1.8-0.5,3.3-0.4,5.5c0,0.7,0,1.4,0,2.1c0,0.4,0,0.9,0,1.4
				c0,0.4,0,0.8,0,1.2v0.7c0.1,8.8,0.2,17.9-1.7,26.7c-0.3,1.3,0.1,2.6,0.6,3.8c0.2,0.5-0.1,1.1-0.6,1.3
				C131.1-105.6,131-105.6,130.9-105.6z M134.4-150.2c4.4,4.5,8.6,9.2,12.7,13.7c5.8,6.4,11.8,13.1,18.2,19.2c1.9-1,3.4-2.5,4.9-3.9
				l0.6-0.5c4.5-4.2,9-8.5,13.3-12.7c4-3.9,8.2-7.8,12.3-11.7c0.5-0.4,0.6-0.7,0.7-0.8c-0.2-0.2-0.8-0.5-1.1-0.6
				c-0.5-0.2-1.1-0.3-1.9-0.3c-5.5,0.2-11.1-0.2-16.5-0.6c-3.3-0.2-6.7-0.5-10.1-0.6c-4.3-0.1-8.6-0.4-12.7-0.6
				c-6.3-0.4-12.8-0.7-19.1-0.7C135-150.3,134.6-150.3,134.4-150.2z"/>
		</g>
		<g>
			<path d="M183.9-99.9c-0.9,0-1.8,0-2.6-0.1c-2.4-0.1-4.9-0.1-7.3-0.1c-3.9,0-8,0-12-0.5c-6-0.7-12.1-0.7-18-0.6c-2.4,0-5,0-7.4,0
				c-1,0-1.8-0.3-2.7-0.6l-0.3-0.1c-2.3-0.8-3.7-1.2-4-2.4c-0.3-1.1,0.5-2.1,2.1-4c1.8-2.1,3.5-4.3,5.1-6.4c1.7-2.3,3.5-4.7,5.5-6.9
				c0.9-1,1.7-2.1,2.5-3.1c1.7-2.2,3.4-4.4,5.7-6.2c0.4-0.3,1.1-0.3,1.4,0.2c0.3,0.4,0.3,1.1-0.2,1.4c-2.1,1.6-3.6,3.6-5.3,5.8
				c-0.8,1.1-1.7,2.2-2.6,3.2c-1.9,2.2-3.7,4.5-5.4,6.8c-1.6,2.2-3.3,4.4-5.1,6.5c-0.7,0.9-1.5,1.7-1.7,2.1c0.4,0.3,1.7,0.7,2.6,1
				l0.4,0.1c0.7,0.3,1.4,0.5,2,0.5c2.5,0,5,0,7.4,0c6,0,12.1-0.1,18.2,0.7c3.9,0.5,7.9,0.5,11.7,0.5c2.4,0,4.9,0,7.4,0.1
				c2.6,0.1,5.3,0,7.9-0.1c1.8-0.1,3.6-0.1,5.5-0.1c0.2,0,0.4,0,0.7,0c0.6,0,2,0.1,2.5-0.1c0.6-2.6,0.6-5.7,0.5-8.3
				c0-3.3,0-6.6,0-9.9c0-4.9,0.1-10-0.1-14.9c0-0.9,0-2,0.1-3.1c0.1-2.8,0.3-6-1.1-8.1c-0.3-0.5-0.2-1.1,0.3-1.4
				c0.5-0.3,1.1-0.2,1.4,0.3c1.8,2.7,1.6,6.2,1.4,9.3c-0.1,1-0.1,2-0.1,2.9c0.2,5,0.2,10.1,0.1,15c0,3.2,0,6.6,0,9.8
				c0,2.7,0.1,6.1-0.6,8.9c-0.4,1.6-2.8,1.6-4.5,1.5c-0.2,0-0.5,0-0.7,0c-1.8,0-3.6,0.1-5.4,0.1C187.5-100,185.7-99.9,183.9-99.9z"
				/>
		</g>
		<g>
			<path d="M198.8-100.9c-0.3,0-0.5-0.1-0.7-0.3c0,0-2.4-2.4-2.9-3.1c-4.5-6.1-8.9-12.2-13.4-18.3l-3.1-4.2
				c-0.3-0.4-0.2-1.1,0.2-1.4c0.4-0.3,1.1-0.2,1.4,0.2l3.1,4.2c4.5,6.1,8.9,12.2,13.4,18.3c0.3,0.4,1.9,2,2.7,2.8
				c0.4,0.4,0.4,1,0,1.4C199.4-101,199.1-100.9,198.8-100.9z"/>
		</g>
	</g>
	<g>
		<path d="M-340.9-266L-340.9-266c-2-0.1-3.9-0.1-5.8-0.2c-2.4-0.1-4.9-0.2-7.4-0.3c-6.2-0.3-13.3-0.7-20.4-0.9c-0.6,0-1-0.5-1-1
			c0-0.6,0.5-1,1-1c7.1,0.2,14.3,0.5,20.5,0.9c2.4,0.1,4.9,0.2,7.3,0.3c1.9,0.1,3.9,0.1,5.8,0.2c0.6,0,1,0.5,1,1
			C-339.9-266.4-340.3-266-340.9-266z"/>
	</g>
	<g>
		<path d="M-454.8-300.7c-2.1,0-3-1.1-3.4-1.8c-0.9-1.7-0.4-4,1.1-5.7c0.5-0.6,1.2-1.2,1.8-1.6c0.2-0.1,0.5-0.2,0.7-0.2
			c0.1,0,0.1,0,0.2,0h0.5c2,0,5.1-0.1,5.3,4c0.1,2.4-1.3,4.2-3.8,4.9C-453.4-300.8-454.1-300.7-454.8-300.7z M-454.4-308
			c-0.4,0.3-0.8,0.7-1.2,1.1c-1,1-1.3,2.5-0.8,3.4c0.6,1.1,2.4,0.8,3.4,0.5c1.1-0.3,2.4-1.1,2.3-2.9c-0.1-2-0.9-2.1-3.2-2.1H-454.4
			L-454.4-308z"/>
	</g>
	<g>
		<path d="M-339.7-304.2c-2.5,0-5-0.2-7.5-0.4c-2.8-0.2-5.7-0.5-8.5-0.4c-0.6,0-1-0.4-1-1s0.4-1,1-1c2.9-0.1,5.8,0.2,8.7,0.4
			c3.3,0.3,6.7,0.5,10.1,0.3c0.5,0,1,0.4,1.1,0.9s-0.4,1-0.9,1.1C-337.7-304.2-338.7-304.2-339.7-304.2z"/>
	</g>
	<g>
		<path d="M-370.8-289.9c-0.5,0-1-0.4-1-0.9c-0.1-1.8-0.3-3.6-0.4-5.3c-0.3-4.1-0.7-8.3-0.9-12.5c-0.1-2.7,0.3-4.3,1.4-5.2
			c1.4-1.2,3.7-0.9,5.5-0.5c2.5,0.5,4.4,2.1,5.1,4.2c0.8,2.1,0.3,4.5-1.2,6.4c-0.2,0.3-0.5,0.6-0.8,0.8c-0.3,0.3-0.6,0.6-0.8,0.9
			c-0.2,0.5-0.8,0.8-1.3,0.6c-0.5-0.2-0.8-0.8-0.6-1.3c0.3-0.8,0.8-1.3,1.3-1.7c0.2-0.2,0.4-0.4,0.5-0.6c1.1-1.4,1.4-3,0.9-4.5
			s-1.9-2.6-3.7-3c-1.9-0.4-3.2-0.4-3.7,0.1c-0.6,0.5-0.8,1.7-0.7,3.6c0.2,4.1,0.5,8.4,0.9,12.4c0.1,1.8,0.3,3.6,0.4,5.3
			C-369.7-290.4-370.1-289.9-370.8-289.9C-370.7-289.9-370.7-289.9-370.8-289.9z"/>
	</g>
	<g>
		<path d="M-443.3-270c-0.6,0-1-0.4-1-1c0-0.4,0-0.8,0-1.2c0-0.7-0.1-1.3,0-2c0.3-2.8,0-5.6-0.2-8.5c-0.4-3.8-0.7-7.8,0.2-11.8
			c0-0.2,0.1-0.3,0.1-0.5c0.2-1.1,0.6-2.9,3.1-2.6c0.3,0,0.8-0.1,1.3-0.2c1.2-0.3,3.4-0.8,4.2,1.9c0.1,0.2,0.1,0.4,0.2,0.6
			c0.3,1,0.3,1.2-0.1,2.9c-0.1,0.5-0.7,0.9-1.2,0.8s-0.9-0.6-0.8-1.2c0.3-1.3,0.3-1.3,0.1-1.8c-0.1-0.2-0.1-0.4-0.2-0.6
			c-0.2-0.8-0.4-0.9-1.8-0.5c-0.6,0.1-1.3,0.3-2,0.2c-0.6-0.1-0.6-0.1-0.9,1c0,0.2-0.1,0.4-0.1,0.6c-0.9,3.7-0.6,7.3-0.2,11.1
			c0.3,2.9,0.6,5.9,0.2,8.9c-0.1,0.5,0,1,0,1.7c0,0.4,0,0.8,0,1.3C-442.3-270.5-442.8-270-443.3-270z"/>
	</g>
	<g>
		<path d="M-337.5-297.9C-337.5-297.9-337.6-297.9-337.5-297.9c-0.7,0-1.3-0.1-1.9-0.1c-1.3-0.1-2.6-0.2-3.9-0.2c-3.1,0-6.2,0-9.3,0
			h-3.8c-0.6,0-1-0.4-1-1s0.4-1,1-1h3.8c3.1,0,6.2,0,9.3,0c1.3,0,2.7,0.1,4,0.2c0.6,0,1.2,0.1,1.8,0.1c0.6,0,1,0.5,0.9,1.1
			C-336.6-298.3-337-297.9-337.5-297.9z"/>
	</g>
	<g>
		<path d="M-341.6-274.1c-7.4,0-15.3-0.2-24.9-0.6c-0.4,0-0.9,0-1.3,0c-1.7,0-3.6-0.1-5.3-0.7c-0.5-0.2-0.8-0.8-0.6-1.3
			s0.8-0.8,1.3-0.6c1.5,0.6,3,0.6,4.7,0.6c0.5,0,0.9,0,1.4,0c9.9,0.4,18.1,0.6,25.8,0.6l0,0c0.6,0,1,0.4,1,1s-0.4,1-1,1
			C-340.9-274.1-341.2-274.1-341.6-274.1z"/>
	</g>
	<g>
		<path d="M-359.4-289.9c-0.1,0-0.3,0-0.4-0.1c-2.2-1-2.6-3-2.8-4.6l-0.1-0.5c-1.2-6.3-1.5-6.9-7.2-5.9c-0.3,0-0.5,0-0.7,0h-0.2
			c-0.6,0-1-0.4-1-1s0.4-1,1-1c0.1,0,0.2,0,0.3,0c0.1,0,0.2,0,0.2,0c7-1.2,8.2,0.4,9.6,7.5l0.1,0.5c0.3,1.6,0.5,2.6,1.7,3.1
			c0.5,0.2,0.7,0.8,0.5,1.3S-359-289.9-359.4-289.9z"/>
	</g>
	<g>
		<path d="M-337.2-309.7c-2.4,0-4.8-0.1-7.1-0.3c-3.7-0.2-7.5-0.4-11.3-0.1c-0.6,0.1-1-0.4-1.1-0.9s0.4-1,0.9-1.1
			c3.9-0.4,7.8-0.1,11.6,0.1c2.4,0.1,4.9,0.3,7.3,0.3l0,0c0.5,0,1,0.4,1,1s-0.4,1-1,1C-337-309.7-337.1-309.7-337.2-309.7z"/>
	</g>
</g>
<g>
	<path d="M-277.1-252.9c-9.6,0-18.4-4.3-25-12.6c-0.3-0.3-0.3-0.8,0-1.2c0.3-0.4,0.7-0.5,1.1-0.4c0.1,0,12.9,4.2,18.8-1.4
		c-9.9-4.1-12.2-11.2-12.3-11.5c-0.1-0.3,0-0.7,0.2-1s0.6-0.4,1-0.3c1.8,0.5,3.6,0.8,4.8,0.8c-7.2-6-8.4-12.7-8.6-15.5
		c-0.2-2.9,0.5-5.4,1.7-6.6c0.2-0.2,0.5-0.3,0.8-0.3s0.6,0.2,0.7,0.5c0.7,1.2,2,2.4,3.1,3.2c-0.4-4-0.9-11.8,1.7-15.2
		c0.7-1,1.7-1.5,2.8-1.6c0.3,0,0.6,0.1,0.8,0.3s0.3,0.5,0.3,0.7c0,2.3,4,19.2,18.9,20.6c0.4-4.3,4.8-10,10.4-11.4
		c3.3-0.8,9.6-0.6,14.2,9.9c3.1,0.2,8.3-3.1,10.1-4.5c0.4-0.3,0.8-0.3,1.2,0s0.5,0.7,0.3,1.1c-0.1,0.3-1.8,4.9-5.2,8
		c2.1-0.7,4.2-1.8,5.1-2.4c0.3-0.2,0.8-0.2,1.1,0s0.5,0.7,0.4,1.1c-0.1,0.3-2,6.9-11.3,8.5c-0.9,12.2-11.9,24.6-26,29.3
		C-269.7-253.5-273.5-252.9-277.1-252.9z M-298.4-264.3c8.5,8.8,19.9,11.6,31.9,7.6c13.6-4.5,24.2-16.7,24.7-28.3
		c0-0.5,0.4-0.9,0.9-1c4.8-0.6,7.4-2.7,8.9-4.4c-2.2,1-5.2,2-7.5,1.4c-0.4-0.1-0.8-0.5-0.8-0.9s0.3-0.9,0.7-1
		c2.8-0.8,4.9-3.6,6.2-5.9c-2.6,1.6-6.3,3.3-9.1,2.7c-0.3-0.1-0.6-0.3-0.7-0.6c-3-7.3-7.2-10.5-12.1-9.2c-5,1.2-9.2,6.9-8.9,10.4
		c0,0.3-0.1,0.6-0.3,0.8c-0.2,0.2-0.5,0.3-0.8,0.3c-15.7-0.6-20.8-16-21.7-21.2c-0.2,0.1-0.3,0.3-0.5,0.5c-2.4,3.1-1.5,12.5-1,15.9
		c0.1,0.4-0.1,0.8-0.4,1s-0.7,0.2-1.1,0c-0.1-0.1-2.8-1.7-4.7-3.8c-0.3,0.9-0.6,2.2-0.5,3.9c0.1,2.6,1.3,9.3,9,15
		c0.3,0.2,0.5,0.7,0.4,1.1c-0.5,1.9-3.5,1.7-6.1,1.2c1.4,2.3,4.6,6.5,11.6,9c0.3,0.1,0.5,0.4,0.6,0.7s0,0.6-0.2,0.9
		C-283.9-262.8-292.5-263.1-298.4-264.3z"/>
</g>
</svg>
