<?xml version="1.0" encoding="utf-8"?>
<!-- Generator: Adobe Illustrator 19.2.1, SVG Export Plug-In . SVG Version: 6.00 Build 0)  -->
<svg version="1.1" id="Layer_1" xmlns="http://www.w3.org/2000/svg" xmlns:xlink="http://www.w3.org/1999/xlink" x="0px" y="0px"
	 viewBox="0 0 85 85" style="enable-background:new 0 0 85 85;" xml:space="preserve">
<style type="text/css">
	.st0{display:none;}
	.st1{display:inline;}
	.st2{fill:#FFCC00;stroke:#FFCC00;stroke-width:0.25;stroke-miterlimit:10;}
	.st3{stroke:#000000;stroke-width:0.25;stroke-miterlimit:10;}
	.st4{stroke:#000000;stroke-width:0.35;stroke-miterlimit:10;}
	.st5{fill:none;stroke:#FFCC00;stroke-width:2;stroke-linecap:round;stroke-linejoin:round;stroke-miterlimit:10;}
	.st6{fill:none;stroke:#000000;stroke-width:2;stroke-linecap:round;stroke-linejoin:round;stroke-miterlimit:10;}
	.st7{fill:none;stroke:#000000;stroke-width:2;stroke-miterlimit:10;}
</style>
<g id="Layer_1_3_" class="st0">
	<g id="Layer_1_2_" class="st1">
		<g id="Layer_1_1_">
			<g id="XEHSHw_1_">
				<g>
					<path class="st2" d="M67,40c2.4-0.3,5.5-1.7,6.7,1.3S71,58.7,67,60.5c-2.1,0.9-4.2,0.6-5.8,0c-0.9,4.8,2.2,8,1.9,10.6
						c-4.7-0.9-3.7-9.6-3.8-13.4c3.8,1.1,6.5,2.8,9.1-1c1-1.5,4.8-14.6,2.9-15.8c-3.1-1.9-7.4,5.3-9.6,3.8c0-1.5,2.8-1.4,3.4-3
						c0.4-1-0.2-4.3,0-6.1c0.3-2.6,1.6-5.3,2.4-7.7c1.5-4.6,4.4-10.1-0.5-12c-1.4-0.5-4.8-0.3-6.2,0c-3.8,0.8-5.2,5.2-8.2,5.8
						c0.3-1.7,2.9-4.8,1.9-7.2c-0.2-0.5-1.9-1.7-2.4-1.4c-1.5,0.7-1.3,8.1,0,8.6c-5.9,4.6,0.2-11.7-4.3-14.4c-1-0.6-4.2-1.5-5.3,0
						c-0.4,0.5,4.7,9.4,4.8,11c0.1,2.4-0.9,3-1.4,5.8c-2.9-1.8-3.3-3.1-5.8-3.4c-5.4-0.7-9.6,2.9-10.6,7.7
						c-1.3,6.7,1.6,12.7-3.4,15.8c-0.8,0.5-2.3,0.4-2.9,1c-1.1,1.1-2,5.4-3.8,6.7c-2.5,1.7-6.8,1.4-5.3-2.4c1.2-2,0.6,1.6,2.9,1.4
						c2-0.1,4.4-4.2,3.8-5.8c-1-2.5-8.8-0.8-5.3-5.3c2.3,0.3,2.2,2.9,4.8,2.9c-0.2-4.6-2.8-8.1-2.9-12.5
						c-0.1-8.6,5.5-15.4,13.9-16.3c6.8-0.7,11.1,0.9,13.9,5.3C44.2,10.6,37.7,3.9,31,3c-9.2-1.3-15.1,6.2-13.9,13.9
						c0.2,1.2,1.7,3.3,1.4,4.8c-0.7,4.8-8.6,5-6.7-1c2.1,0.6,0.7,2.7,2.4,2.9c3.6,0.4,0.5-10.4,0.5-10.6C15.1,5.7,25-1.7,34.3,2
						c2.1,0.8,4,4,6.2,4.3s4.2-2.5,7.7-1c0.6,0.3,1.5,1.7,1.9,2.4c0.4,0.6,0.7,2.6,1,2.9c0.6,0.5,2.9,0.3,4.3,1.4
						c1.3,1,0.8,3,1.9,3.4c0.6,0.2,2.9-1.4,3.4-1.4c5.3-1,10.4,0.9,11,5.3C72.8,26.1,66.2,28.2,67,40z M21.9,20.7
						c-2.1,3.2-2.4,8.8-1.9,12.5c0.5,3.5,2.8,6.7,2.9,10.1c6.7-0.5,3.2-8.1,4.3-13.9c0.9-4.4,4.3-8.4,7.7-9.6c2.2-0.8,5.2-0.5,8.2,0
						C40.5,12.2,25.2,15.7,21.9,20.7z"/>
					<path class="st2" d="M58.3,41.4c-7.2-2.8,3.2-10.6,2.4-14.4c-0.6-2.6-4.4-3.4-8.6-2.4c2-4.2,9.6-2.1,10.6,0.5
						C64.8,30.8,55,35.4,58.3,41.4z"/>
					<path class="st3" d="M32.4,39c3.8-1.3,2.2,7.8,1,8.2C30.6,48,29.5,40,32.4,39z"/>
					<path class="st3" d="M44.9,39.4c1.7,0.7,1.2,7.8-1.9,7.7C41.3,47.1,40.6,37.7,44.9,39.4z"/>
					<path class="st3" d="M25.2,49.7c0.6,6,0.3,12.6,1.6,18.1c0.9,3.2,2.3,5.9,4.4,8.4c1.5,1.8,4.1,4.1,5.6,4.6
						c3.9,1.3,7.3,0,10.1-1.9c0.9-0.6,2.8-2.2,3.4-2.8C55.5,71,55.1,62,56.9,53c1.8,3,0.6,7.5-0.1,11.3c-1.5,8.6-3.6,13-10.2,17.2
						c-9,5-15.8-1.5-19.8-8.1c-1.2-1.8-1.8-4.3-2.1-5.1C23.7,64.8,23,51,25.2,49.7z"/>
					<path class="st3" d="M47.8,60.6c0.3,7.8-2.9,12.1-11,11.5c2.3-3.3,9.5-1.8,8.6-8.2c-1.3,0.2-14.3,2.3-16.2-0.8
						c-0.1-0.2,0.2-1,0.8-1.1c-0.1,0,5.4,1.5,7.7,1.4C42.4,63.2,44.2,61.2,47.8,60.6z"/>
				</g>
			</g>
		</g>
		<g id="Layer_2">
			<path class="st3" d="M67,39.5c2.2-1.1,5.6-1.2,6.7,1.8c1.2,3-2.7,17.4-6.7,19.2c-2.1,0.9-4.2,0.6-5.8,0c-0.9,4.8,2.2,8,1.9,10.6
				c-4.7-0.9-3.7-9.6-3.8-13.4c3.8,1.1,6.5,2.8,9.1-1c1-1.5,4.8-14.6,2.9-15.8c-3.1-1.9-7.4,5.3-9.6,3.8c0-1.3,1.5-2.1,2.7-3.3
				C65.4,40.8,66.4,39.8,67,39.5z"/>
		</g>
	</g>
	<g id="Layer_2_1_" class="st1">
		<path class="st4" d="M33.7,48.9c1.2-0.7,3.3-2.4,4-4.6c0.6-0.1,0.9,0.1,1,0.5c-0.1,1.1-0.4,1.8-1.2,2.9c-1,1.3-2.9,2.1-3.4,2.9
			c-0.6,1-2.7,4.5-1.7,6.1c1,1.1,4.2,0.5,4.3,0.5c2.8-1,2.3-3.6,4.8-3.8c0.5,6.3-11,7.4-11,3.4C30.4,53.9,32.5,49.6,33.7,48.9z"/>
	</g>
	<g id="Layer_3" class="st1">
		<path d="M33,56.7c0.7,0.8,1.4,1.4,2.9,1.3c3-0.1,5.3-4.9,6.8-2c-2.8,3.3-10,6.4-11.9,0.4c1-2.5,1.7-6.6,4.8-8.1
			c0.8-1.5,1.2-3,2.6-4.2c1.5,2-1.3,4.5-1.3,5.7C34.7,50.7,33.5,54.2,33,56.7z"/>
	</g>
</g>
<g id="Layer_2_2_">
	<path class="st5" d="M39.9,12.1c2.8-5,11.2-6.3,10.8,9.7"/>
	<path class="st5" d="M49.3,12.2c6.6-0.7,6.8,4.7,4.1,8.3c5.4-5.4,12.7-8.4,16.4-3c5.4,7.9-7.8,14.6-4.9,23.9"/>
	<path class="st6" d="M25.4,51c-3.9,4.6,2.4,22.5,5.1,27c3.9,6.5,16.1,0.5,18.9-1.6c2.8-2.1,8.3-7.8,7.6-21.8"/>
	<path class="st6" d="M36.4,40.6c0.1,2.1-0.2,5.3-2.2,7.2c-1.6,1.6-4.2,8.2-2.7,9.8c1.5,1.5,6.6,0.3,7.7-0.2c1-0.5,1.8-3.1,1.9-3.6"
		/>
	<path class="st6" d="M31.1,63.3c3.5,1.4,12.9,0.4,15.8-1.1c-0.9,8-9.6,7-12,7.6"/>
	<path class="st6" d="M62.6,44.3c2.3-0.6,3.2-5.5,7.3-4.1c4,1.5-1.3,18.3-4.1,20c-2.8,1.7-4.8-0.3-5.7-1.5
		c0.5,7.2,0.7,10.8,3.1,12.5"/>
	<ellipse cx="45.8" cy="43.7" rx="1.7" ry="3"/>
	<ellipse cx="31.8" cy="43.4" rx="1.6" ry="2.9"/>
	<path class="st7" d="M33.5,48.8c-1.6,0.2-6.1-0.3-6.9-0.9c-0.5-0.4-1.1-7.4-0.6-8.4c0.5-1,8.5-1.1,8.9-0.6c0.6,0.5,1,5.4,0.2,7.9"
		/>
	<path class="st7" d="M39.9,39.2c0.7-1.3,11.6-1.4,12.4-0.6s0.2,10.8-1.1,11.3s-9.2,0.3-10.3-0.5C39.9,48.5,39.2,40.5,39.9,39.2z"/>
	<path class="st6" d="M35.5,41c0.4-0.6,3.2-0.9,4.1,0"/>
	<path class="st5" d="M14.7,43.7c2.5,4.7,6.9,2.9,7.3-3.2s-5-19.2,3.7-23.9c10.1-5.4,19.4,3.2,18.8,6.6c4.9-0.4-5.7-19.5-21.8-16.5
		c-8,1.1-7.1,8.9-5.7,14.5c0.8,3.2,0.2,6-1.9,5.5"/>
	<path class="st5" d="M44.6,23.2c-1.9-3.7-12.9-4.4-17.5,3.4s-3.9,17.3-11.4,11.1"/>
	<line class="st7" x1="52" y1="41.2" x2="64.9" y2="42.2"/>
	<path class="st5" d="M53.5,23.7c0,0,7.4-1.9,9.8,1.8S56.9,41.8,60.1,45"/>
</g>
</svg>
