<svg xmlns="http://www.w3.org/2000/svg" viewBox="0 0 58.53 76.36"><defs><style>.cls-1,.cls-2,.cls-3{fill:none;stroke-width:1.5px;}.cls-1,.cls-3{stroke:#000;}.cls-1,.cls-2{stroke-linecap:round;stroke-linejoin:round;}.cls-2{stroke:#fc0;}.cls-3{stroke-miterlimit:10;}</style></defs><title>sam-face</title><g id="Layer_2" data-name="Layer 2"><g id="Layer_1-2" data-name="Layer 1"><path class="cls-1" d="M16.83,43.12h0a5.7,5.7,0,0,1-5.64-6V35.77c0-2.2,1.42-2.7,5.83-2.7s5.82.16,5.82,2.25v1.79A6,6,0,0,1,16.83,43.12Z"/><path class="cls-2" d="M26.34,6.47c2.8-5,11.2-6.3,10.8,9.7"/><path class="cls-2" d="M35.74,6.57c6.6-.7,6.8,4.7,4.1,8.3,5.4-5.4,12.7-8.4,16.4-3,5.4,7.9-7.8,14.6-4.9,23.9"/><path class="cls-1" d="M11.84,45.37c-1.31,1.55-1.47,4.61-1,8.17.93,7,5.76,16.15,7.55,19.13,3.9,6.5,16.1.5,18.9-1.6,2-1.49,4.41-3,5.38-8.74"/><path class="cls-1" d="M22.84,35.32c.1,2.1-.2,5-2.2,6.85-1.6,1.6-4.2,8.2-2.7,9.8s7.34.28,8.44-.22,1.16-3.12,1.16-3.58"/><path class="cls-1" d="M17.54,57.67c3.5,1.4,12.9.4,15.8-1.1-.9,8-9.6,7-12,7.6"/><path class="cls-1" d="M49,38.67c2.3-.6,3.2-5.5,7.3-4.1s-1.3,18.3-4.1,20-4.8-.3-5.7-1.5c.5,7.2.7,10.8,3.1,12.5"/><ellipse cx="32.24" cy="38.07" rx="1.7" ry="3"/><ellipse cx="18.24" cy="37.77" rx="1.6" ry="2.9"/><path class="cls-2" d="M.75,37.1c2.5,4.7,6.9,2.9,7.3-3.2S3.44,15.67,12.14,11c10.1-5.4,19.4,3.2,18.8,6.6,4.9-.4-5.7-19.5-21.8-16.5-8,1.1-7.1,8.9-5.7,14.5.8,3.2.2,6-1.9,5.5"/><path class="cls-2" d="M30.94,17.57c-1.9-3.7-12.8-4.4-17.4,3.4S9.25,37.3,1.75,31.1"/><line class="cls-3" x1="38.91" y1="35.83" x2="51.34" y2="36.57"/><path class="cls-2" d="M39.94,18.07s7.4-1.9,9.8,1.8-6.4,16.3-3.2,19.5"/><path class="cls-1" d="M32.24,44.2h0a6.67,6.67,0,0,1-6.67-6.67V35.42c0-2.19,2-2.4,6.67-2.54s6.67.35,6.67,2.65v2A6.67,6.67,0,0,1,32.24,44.2Z"/><line class="cls-1" x1="22.84" y1="36.38" x2="25.57" y2="36.38"/></g></g></svg>